<?xml version="1.0" encoding="UTF-8"?>
<svg version="1.1" xmlns="http://www.w3.org/2000/svg" width="600" height="599">
<path d="M0 0 C0 0.66 0 1.32 0 2 C0.85078125 2.39058594 0.85078125 2.39058594 1.71875 2.7890625 C14.87570563 9.77306292 26.09306408 23.34858288 35 35 C35.75337646 35.97936523 35.75337646 35.97936523 36.52197266 36.97851562 C43.58500279 46.21237965 50.25843645 55.6689278 56.5625 65.4375 C57.13379639 66.31188721 57.70509277 67.18627441 58.29370117 68.0871582 C68.0994772 83.53899227 72.54829987 99.96808203 68.80859375 118.125 C65.49955957 129.89045486 58.61171428 140.24952834 50.86328125 149.5703125 C46.54914057 155.19587959 44.60759165 162.01269605 44 169 C41.5 169.875 41.5 169.875 38 170 C33.21402982 167.47632457 29.11195794 164.04523285 27 159 C24.2407532 149.8610934 24.87993504 141.46768937 26.4375 132.1875 C26.63956055 130.9200293 26.63956055 130.9200293 26.84570312 129.62695312 C27.38822939 126.29504791 27.92985885 123.21042346 29 120 C29.7936861 111.14889297 30.13321146 103.59662574 24.80078125 96.0625 C22.1024373 92.97198892 19.26740168 90.48322528 16 88 C16.13277344 88.76441406 16.26554687 89.52882813 16.40234375 90.31640625 C18.74852178 104.54760292 19.20694507 118.73781106 19.1875 133.125 C19.18709213 134.27103195 19.18709213 134.27103195 19.18667603 135.44021606 C19.16665277 147.72952945 18.64429761 159.80917251 17 172 C16.89284668 172.84546387 16.78569336 173.69092773 16.67529297 174.56201172 C14.27811992 193.29625056 10.88055456 212.72077934 -1 228 C-1.47695313 228.61488281 -1.95390625 229.22976562 -2.4453125 229.86328125 C-8.41934514 236.6328509 -19.50261196 242.61421838 -28.5625 243.25 C-38.2485189 243.07356978 -46.62626142 238.4458509 -55 234 C-53.33211728 248.60835208 -47.08645859 258.4891363 -36 268 C-33.8633614 269.6085818 -31.68453815 271.14298393 -29.5 272.6875 C-24.36594612 276.39173318 -22.28306287 278.79852946 -21 285 C-21 285.99 -21 286.98 -21 288 C-28.64427862 286.39883353 -36.32707473 281.27102866 -42 276 C-42 275.34 -42 274.68 -42 274 C-42.99 273.67 -43.98 273.34 -45 273 C-45 272.34 -45 271.68 -45 271 C-45.99 270.67 -46.98 270.34 -48 270 C-48 269.34 -48 268.68 -48 268 C-48.66 268 -49.32 268 -50 268 C-51.69283385 265.82610905 -53.23477314 263.66924654 -54.75 261.375 C-55.41890259 260.36578491 -55.41890259 260.36578491 -56.10131836 259.33618164 C-62.62006416 249.22805217 -67.15591509 239.00850498 -67.125 226.8125 C-67.12757813 225.78769531 -67.13015625 224.76289063 -67.1328125 223.70703125 C-67 221 -67 221 -66 218 C-60.08631446 217.30961582 -57.24199435 219.42059592 -52.6875 222.75 C-51.35320675 223.67354214 -50.01598222 224.59286446 -48.67578125 225.5078125 C-48.03850098 225.94383789 -47.4012207 226.37986328 -46.74462891 226.82910156 C-39.2738793 231.84305554 -31.9989992 233.60540398 -23 232 C-11.09743224 226.58825559 -5.64294037 215.58111962 -1 204 C0.47588525 199.70256943 1.77547655 195.37488832 3 191 C3.47215942 189.44744507 3.47215942 189.44744507 3.95385742 187.86352539 C8.45346017 172.03298007 8.52534563 155.50790821 8.4375 139.1875 C8.4361203 138.07957092 8.4347406 136.97164185 8.43331909 135.83013916 C10.07294126 107.13253865 10.07294126 107.13253865 3 81 C-8.66739564 78.81236332 -18.14206272 80.00903871 -28.41015625 86.07421875 C-35.05479436 91.0151035 -39.81399224 97.18212385 -44.5 103.9375 C-61.66575842 128.55846007 -82.51486761 139.41901631 -109.89111328 150.12329102 C-117.4177189 153.25226077 -120.79011581 158.17696808 -124.0703125 165.3359375 C-128.19366267 177.151588 -127.36474285 190.02000756 -125.92578125 202.21484375 C-126 205 -126 205 -127.3125 206.8984375 C-129 208 -129 208 -131.6875 207.6875 C-132.8321875 207.3471875 -132.8321875 207.3471875 -134 207 C-135.77172735 201.32815415 -135.26372184 195.19971075 -135.29516602 189.31323242 C-135.30659866 187.82875979 -135.32690967 186.34432536 -135.35668945 184.86010742 C-135.64315019 170.55467416 -133.08075713 158.12113569 -125 146 C-124.34 146 -123.68 146 -123 146 C-122.67 145.01 -122.34 144.02 -122 143 C-121.34 143 -120.68 143 -120 143 C-120 142.34 -120 141.68 -120 141 C-111.68818422 136.26068043 -103.5004725 133.07869992 -94.3125 130.4375 C-76.18129478 125.16556393 -64.801777 117.40873976 -55 101 C-54.17824621 99.46324593 -53.36475999 97.92202012 -52.5625 96.375 C-48.84805681 89.48754092 -43.6376907 82.46073486 -36 80 C-36 79.34 -36 78.68 -36 78 C-26.90154201 73.20263124 -19.31053706 70.49865326 -8.9375 70.8125 C-8.07189453 70.82603516 -7.20628906 70.83957031 -6.31445312 70.85351562 C-4.20935826 70.8884067 -2.10459026 70.94219335 0 71 C-4.56528926 56.22958939 -14.77652125 41.65863529 -28.32421875 33.62109375 C-41.51689645 27.01385186 -53.94402867 25.89810613 -68.48242188 25.39453125 C-69.43568359 25.35714844 -70.38894531 25.31976563 -71.37109375 25.28125 C-72.23661865 25.25095703 -73.10214355 25.22066406 -73.99389648 25.18945312 C-76 25 -76 25 -77 24 C-76.71269945 21.66055264 -76.38063221 19.3260857 -76 17 C-70.04287553 14.84408829 -65.19128338 14.94192323 -58.9375 15.625 C-57.54640015 15.77050293 -57.54640015 15.77050293 -56.12719727 15.91894531 C-34.03069836 18.45652572 -15.71615488 28.31414439 -1 45 C4.88571945 52.67849607 12 64.1073237 12 74 C12.72445313 74.103125 13.44890625 74.20625 14.1953125 74.3125 C22.83734411 76.43088101 29.38658767 83.74482921 34 91 C35.24054168 93.32483192 36.10339067 95.49893187 37 98 C37.51820313 99.27810547 37.51820313 99.27810547 38.046875 100.58203125 C39.30760018 105.1030744 39.4238807 109.3244533 39.4375 114 C39.44209229 114.95463135 39.44668457 115.9092627 39.45141602 116.89282227 C39.32689263 125.12550108 37.85020367 132.75065472 35.69116211 140.67773438 C34.28818974 145.92495943 33.79003065 149.67468578 35 155 C37.25945374 152.9143504 38.67019756 150.98166563 40.0625 148.25 C42.45268397 143.7902665 45.21211338 139.67109514 48.0625 135.5 C51.65436564 130.19981602 54.8438548 125.0672923 57 119 C57.4125 117.9275 57.825 116.855 58.25 115.75 C61.34733512 100.2633244 56.5089956 86.43545019 49 73 C48.64663574 72.36191406 48.29327148 71.72382812 47.92919922 71.06640625 C39.21887811 55.44026003 28.86509145 41.36885883 17 28 C16.38253906 27.29746094 15.76507813 26.59492187 15.12890625 25.87109375 C5.35333042 15.4423614 -7.35392161 6.53035196 -20 0 C-20.96421875 -0.50789063 -21.9284375 -1.01578125 -22.921875 -1.5390625 C-29.53897249 -4.81402192 -36.25859733 -7.16928838 -43.3125 -9.3125 C-44.14845703 -9.56717041 -44.98441406 -9.82184082 -45.84570312 -10.08422852 C-53.71920131 -12.38223142 -61.31018162 -13.18004115 -69.5 -13.1875 C-70.20769531 -13.19974609 -70.91539062 -13.21199219 -71.64453125 -13.22460938 C-89.29220929 -13.27300337 -106.62937881 -3.12129035 -121.25 5.9375 C-122.25703979 6.56011719 -122.25703979 6.56011719 -123.28442383 7.1953125 C-126.39410492 9.16791982 -129.29708775 11.1736974 -132.0390625 13.63671875 C-139.65028522 20.31488524 -144.99001577 20.81207327 -154.6875 20.2734375 C-155.43 20.22413086 -156.1725 20.17482422 -156.9375 20.12402344 C-177.34824665 18.89667267 -203.29731293 30.42081307 -219 43 C-233.15154643 57.2124133 -233.90889352 79.08753492 -234.08203125 97.9140625 C-234.06344848 105.29460747 -233.61040859 112.63012257 -233.14440918 119.99267578 C-228.47444509 195.01211589 -228.47444509 195.01211589 -242.82373047 217.16210938 C-245.29220677 221.01903956 -247.63824781 224.95216401 -250 228.875 C-250.51997559 229.73867187 -251.03995117 230.60234375 -251.57568359 231.4921875 C-263.65911568 251.71141541 -271.67406299 273.76825724 -265.8203125 297.63671875 C-260.58476134 312.72009233 -252.37414521 320.82317594 -238.3125 327.9375 C-237.549375 328.288125 -236.78625 328.63875 -236 329 C-236.103125 327.845 -236.20625 326.69 -236.3125 325.5 C-236.29138967 319.52577693 -233.41737558 315.60757518 -229.4609375 311.33984375 C-223.56468237 305.87672585 -216.32137127 302.84202107 -208.875 300.0625 C-203.74636489 298.07748325 -197.55886709 295.11773419 -195 290 C-194.34 290 -193.68 290 -193 290 C-192.71125 289.41734375 -192.4225 288.8346875 -192.125 288.234375 C-188.76874615 281.56848195 -184.94289682 275.2063824 -181 268.875 C-180.58492188 268.20629883 -180.16984375 267.53759766 -179.7421875 266.84863281 C-175.68045311 260.36965555 -171.57614111 254.29733406 -166 249 C-165.113125 248.071875 -164.22625 247.14375 -163.3125 246.1875 C-161 244 -161 244 -159 244 C-159 243.34 -159 242.68 -159 242 C-151.23889295 237.17512927 -144.26088186 233.56521457 -135 235.6875 C-132.51470158 237.31847709 -132.01450757 238.20214279 -131 241 C-130.93379073 243.61382703 -130.96028218 246.1437392 -131.0625 248.75 C-131.29114208 261.06609835 -129.33291517 272.80277598 -124 284 C-123.60683594 284.86367188 -123.21367187 285.72734375 -122.80859375 286.6171875 C-120.38574304 291.73631407 -117.71820116 295.75062725 -114 300 C-114 300.66 -114 301.32 -114 302 C-113.38125 302.309375 -112.7625 302.61875 -112.125 302.9375 C-110.75 303.625 -109.375 304.3125 -108 305 C-108 305.66 -108 306.32 -108 307 C-107.28714844 307.27070313 -106.57429687 307.54140625 -105.83984375 307.8203125 C-102.96840555 309.01312452 -100.30279534 310.40793481 -97.5625 311.875 C-88.05459475 316.6406331 -76.79720344 321.00640946 -66 319 C-61.55804479 317.09526634 -58.68540566 315.0281085 -56 311 C-55.34 311 -54.68 311 -54 311 C-53.8453125 309.9790625 -53.8453125 309.9790625 -53.6875 308.9375 C-52.85274981 305.37084011 -51.50527246 302.33777806 -50 299 C-48.11328125 299.265625 -48.11328125 299.265625 -46 300 C-43.89354112 303.25474513 -42.94595131 306.83795324 -43.125 310.6875 C-45.77822179 317.69958616 -50.43668998 322.46590999 -57 326 C-57.83917969 326.51240234 -57.83917969 326.51240234 -58.6953125 327.03515625 C-71.66009252 332.46278449 -90.31298804 328.31464004 -102.7109375 323.54296875 C-119.46576317 315.68292583 -129.92391354 301.34606654 -136.7109375 284.578125 C-141.34823867 271.70610115 -141.37732899 259.51805299 -141 246 C-149.77349988 247.25511499 -155.40158319 251.33521808 -161 258 C-164.13157798 262.25039043 -167.07312831 266.60701708 -170 271 C-170.57105469 271.82113281 -171.14210938 272.64226562 -171.73046875 273.48828125 C-174.31803711 277.23327093 -176.52822855 280.95672273 -178.5 285.0625 C-183.63740412 295.46574334 -190.29472729 300.8415854 -200 307 C-200.84820312 307.54269531 -201.69640625 308.08539063 -202.5703125 308.64453125 C-205.10798568 310.06024282 -207.55351575 310.97264046 -210.3125 311.875 C-216.51486409 314.06259058 -222.27401223 316.41101835 -226 322 C-226.27965235 323.97971807 -226.27965235 323.97971807 -226.1875 326.125 C-226.17203125 326.91132813 -226.1565625 327.69765625 -226.140625 328.5078125 C-225.95605823 331.77874588 -225.57719863 335.00658754 -225.12109375 338.25 C-225.06115234 339.11625 -225.06115234 339.11625 -225 340 C-226 341 -226 341 -227.96875 341.01953125 C-240.94499769 339.95820235 -253.99648758 332.7567506 -262.70703125 323.109375 C-273.22245362 310.37173919 -279.22689498 293.60852279 -278 277 C-275.60251047 257.43404734 -268.53248602 241.11168508 -259 224 C-258.53094238 223.154375 -258.06188477 222.30875 -257.57861328 221.4375 C-256.38740938 219.29073337 -255.19448642 217.14494138 -254 215 C-253.34 215 -252.68 215 -252 215 C-251.88527344 214.43023437 -251.77054688 213.86046875 -251.65234375 213.2734375 C-250.71336352 210.00106327 -248.97951644 207.32957107 -247.25390625 204.4140625 C-241.15116527 192.66486024 -242.86532243 177.58472313 -242.92483521 164.67740822 C-242.93785446 161.81664411 -242.94417986 158.95592765 -242.94897461 156.09513855 C-242.96219583 148.98289524 -242.98621233 141.87069704 -243.01037598 134.75848389 C-243.15268381 92.08070884 -243.15268381 92.08070884 -242.6875 76.32421875 C-242.65378296 74.79448174 -242.65378296 74.79448174 -242.61938477 73.23384094 C-242.10481604 59.546065 -237.24828543 46.89773145 -227.90625 36.7109375 C-207.12808792 18.06168547 -178.47093307 10.84050013 -151.18383789 10.03442383 C-144.12504961 9.66769518 -140.8638685 8.02392865 -136 3 C-94.56191941 -27.81121798 -41.98650546 -30.74244131 0 0 Z " fill="#060503" transform="translate(309,25)"/>
<path d="M0 0 C8.8976348 7.24226088 12.29517242 18.43318936 13.5703125 29.46484375 C14.1746035 36.01275094 14.14900129 42.55421869 14.125 49.125 C14.12306641 50.40076904 14.12113281 51.67653809 14.11914062 52.9909668 C14.07777996 62.02884607 13.79404877 70.99605411 13 80 C17.18486207 75.94659957 20.70180197 71.63339512 24.23046875 67.01171875 C24.81441406 66.34785156 25.39835937 65.68398438 26 65 C26.66 65 27.32 65 28 65 C28.2165625 64.45859375 28.433125 63.9171875 28.65625 63.359375 C30.46499997 60.18354656 32.91723799 57.79271919 35.5 55.25 C35.99886719 54.74339844 36.49773437 54.23679687 37.01171875 53.71484375 C40.74658861 50 40.74658861 50 43 50 C43.33 49.01 43.66 48.02 44 47 C61.11687447 33.06766031 80.0100227 26.83941786 102 28 C112.50103658 29.31262957 121.03437069 35.46012535 129 42 C129.74507812 42.52335937 130.49015625 43.04671875 131.2578125 43.5859375 C131.83273437 44.05257812 132.40765625 44.51921875 133 45 C133 45.66 133 46.32 133 47 C133.99 47.33 134.98 47.66 136 48 C136 48.66 136 49.32 136 50 C136.99 50.33 137.98 50.66 139 51 C140.34692383 52.46777344 140.34692383 52.46777344 141.70703125 54.359375 C142.2086377 55.05659668 142.71024414 55.75381836 143.22705078 56.47216797 C143.75024902 57.22385254 144.27344727 57.97553711 144.8125 58.75 C145.34858887 59.51844238 145.88467773 60.28688477 146.43701172 61.07861328 C154.46675151 72.83391796 160.43155153 85.12638797 158.484375 99.70703125 C157.50703854 104.33361594 155.62703688 108.05944469 153 112 C152.34 112 151.68 112 151 112 C150.67 112.99 150.34 113.98 150 115 C115.56402373 142.26450654 55.82433352 133.15063699 15 133 C15.796875 127.21875 15.796875 127.21875 17.625 125.25 C31.55147869 117.92027437 51.13685771 120.93894158 66.29077148 121.09594727 C105.91087685 121.64557624 105.91087685 121.64557624 141.75 106.4375 C145.50998306 102.36418502 146.49235885 98.86316578 146.3046875 93.28515625 C144.34800391 78.61002933 133.44871978 64.12041973 123.0625 54.0625 C121 52 121 52 120 49 C118.28480253 47.97348627 118.28480253 47.97348627 116 47 C114.865625 46.34 113.73125 45.68 112.5625 45 C102.8586186 39.45786816 92.46574894 38.82991792 81.67578125 41.26953125 C70.12823569 44.4219269 61.28046829 50.6696965 51.82421875 57.75073242 C50 59 50 59 47.83203125 59.9777832 C45.65032108 60.92509452 45.65032108 60.92509452 45 64 C43.29296875 65.6484375 43.29296875 65.6484375 41.1875 67.375 C38.03968063 70.02727714 35.55083424 72.7624027 33 76 C32.34 76 31.68 76 31 76 C30.731875 76.5775 30.46375 77.155 30.1875 77.75 C28.98199197 80.03412048 27.56864477 81.95431531 26 84 C26.8765625 84.20753906 27.753125 84.41507812 28.65625 84.62890625 C39.97696555 87.37855159 51.13209169 90.60487175 62.30078125 93.91259766 C65.75800749 94.92886519 69.21881636 95.93140027 72.68161011 96.9284668 C75.80608665 97.8287225 78.92902143 98.73425909 82.05181885 99.64031982 C83.59688516 100.08736329 85.14258021 100.5322396 86.68890381 100.97491455 C88.86471267 101.59834254 91.03801061 102.22989313 93.2109375 102.86328125 C94.47212402 103.22719971 95.73331055 103.59111816 97.03271484 103.96606445 C100 105 100 105 102 107 C82.78796542 113.40401153 51.34610557 101.56007274 32.6171875 96.03515625 C28.10883055 94.74496771 23.61460135 93.81871959 19 93 C18.70754395 93.4846875 18.41508789 93.969375 18.11376953 94.46875 C16.79163524 96.65045514 15.45851391 98.82523351 14.125 101 C13.66480469 101.763125 13.20460938 102.52625 12.73046875 103.3125 C12.28574219 104.034375 11.84101563 104.75625 11.3828125 105.5 C10.97434082 106.1703125 10.56586914 106.840625 10.14501953 107.53125 C9.76716309 108.0159375 9.38930664 108.500625 9 109 C8.34 109 7.68 109 7 109 C7 109.66 7 110.32 7 111 C3.625 111.625 3.625 111.625 0 112 C-2 110 -2 110 -2.265625 107.3125 C-2.26046875 106.219375 -2.2553125 105.12625 -2.25 104 C-2.25773437 102.39125 -2.25773437 102.39125 -2.265625 100.75 C-1.93338167 96.05950592 -1.01248948 91.58503207 0 87 C-3.9996864 85.72954741 -8.00158715 84.46639954 -12.00561523 83.2097168 C-13.36495706 82.78198799 -14.72369485 82.35233421 -16.08178711 81.9206543 C-18.04381793 81.29738707 -20.00797985 80.6812759 -21.97265625 80.06640625 C-23.74008179 79.5086853 -23.74008179 79.5086853 -25.54321289 78.93969727 C-32.52428998 76.8662804 -32.52428998 76.8662804 -39.23828125 78.65234375 C-40.25277344 79.40644531 -41.26726562 80.16054688 -42.3125 80.9375 C-47.86620926 85 -47.86620926 85 -50 85 C-50 85.66 -50 86.32 -50 87 C-49.26652344 87.26683594 -48.53304687 87.53367187 -47.77734375 87.80859375 C-45.04081478 88.98249155 -42.95765618 90.30660561 -40.5625 92.0625 C-37.04010464 94.59274525 -33.47566678 96.99388529 -29.80615234 99.30126953 C-11.42253221 110.86620169 -11.42253221 110.86620169 -6 119 C-5.4375 121.6875 -5.4375 121.6875 -6 124 C-7.6875 125.875 -7.6875 125.875 -10 127 C-13.35616946 126.90677307 -15.76256581 125.62623908 -18.65625 124.07421875 C-22.77710831 121.99839933 -26.76387861 120.87272269 -31.25 119.875 C-41.51293356 117.45297607 -51.65861017 114.65001216 -61.8125 111.8125 C-62.60893921 111.59035828 -63.40537842 111.36821655 -64.22595215 111.13934326 C-71.48977224 109.11309614 -78.75048176 107.0769208 -86 105 C-86.4921875 101.83984375 -86.4921875 101.83984375 -86 98 C-83.70569225 95.6316577 -80.99308416 94.15342873 -78.125 92.5625 C-77.37863281 92.11712891 -76.63226563 91.67175781 -75.86328125 91.21289062 C-70.38508065 88 -70.38508065 88 -68 88 C-70.02113582 84.33201277 -72.05274289 80.85394813 -74.5625 77.5 C-80.62495715 69.18044342 -81.85117722 60.09978937 -81 50 C-79.05308775 40.99378003 -72.77969947 32.98799901 -67 26 C-66.34 26 -65.68 26 -65 26 C-64.773125 25.443125 -64.54625 24.88625 -64.3125 24.3125 C-62.62449964 21.33840412 -60.53323483 19.27991135 -58 17 C-57.34 17 -56.68 17 -56 17 C-55.67 16.01 -55.34 15.02 -55 14 C-41.55601406 2.01682068 -17.18571617 -12.20667691 0 0 Z M-52.25 27.625 C-52.8275 28.40875 -53.405 29.1925 -54 30 C-54.76441406 30.75152344 -55.52882813 31.50304687 -56.31640625 32.27734375 C-59.02663171 35.02701937 -61.3561797 37.86205709 -63.6875 40.9375 C-64.45449219 41.93652344 -65.22148437 42.93554688 -66.01171875 43.96484375 C-69.50291766 49.29423776 -70.91841066 54.65250355 -70 61 C-67.96764479 67.83942293 -63.92542517 73.88030052 -59 79 C-56.14416264 80.33055945 -56.14416264 80.33055945 -54.07055664 79.11962891 C-53.35762451 78.65991699 -52.64469238 78.20020508 -51.91015625 77.7265625 C-51.12576172 77.2315625 -50.34136719 76.7365625 -49.53320312 76.2265625 C-48.71787109 75.69804687 -47.90253906 75.16953125 -47.0625 74.625 C-45.45226837 73.59158685 -43.83908441 72.56275613 -42.22265625 71.5390625 C-41.50859619 71.07709473 -40.79453613 70.61512695 -40.05883789 70.13916016 C-35.51966245 67.62762303 -32.76420877 68.06609244 -27.765625 69.36328125 C-26.55132812 69.67330078 -25.33703125 69.98332031 -24.0859375 70.30273438 C-22.82007813 70.63595703 -21.55421875 70.96917969 -20.25 71.3125 C-18.99960937 71.63412109 -17.74921875 71.95574219 -16.4609375 72.28710938 C-14.04656924 72.90856674 -11.63311196 73.53357701 -9.22070312 74.16259766 C-5.48640782 75.13353708 -1.74542016 76.07305556 2 77 C5.02511784 55.95922501 6.21719494 32.55401646 -5 13.625 C-5.66 12.75875 -6.32 11.8925 -7 11 C-7.53625 10.21625 -8.0725 9.4325 -8.625 8.625 C-21.46387922 -0.15949631 -44.28777008 18.33573176 -52.25 27.625 Z M-66.625 96 C-67.85089844 96.8353125 -67.85089844 96.8353125 -69.1015625 97.6875 C-69.72804688 98.120625 -70.35453125 98.55375 -71 99 C-67.95541168 100.69627064 -65.22308651 101.47271747 -61.796875 102.0703125 C-60.8171875 102.24433594 -59.8375 102.41835938 -58.828125 102.59765625 C-57.81234375 102.77167969 -56.7965625 102.94570313 -55.75 103.125 C-54.203125 103.39763672 -54.203125 103.39763672 -52.625 103.67578125 C-50.08425433 104.12276428 -47.54264178 104.56395534 -45 105 C-46.37485532 103.45833358 -46.37485532 103.45833358 -48 102 C-48.66 102 -49.32 102 -50 102 C-50 101.34 -50 100.68 -50 100 C-52.17458278 98.178958 -52.17458278 98.178958 -54.875 96.375 C-56.23238281 95.42753906 -56.23238281 95.42753906 -57.6171875 94.4609375 C-61.65079807 91.98787135 -62.96556951 93.49067624 -66.625 96 Z " fill="#E4B22D" transform="translate(413,295)"/>
<path d="M0 0 C0.12428477 6.7459013 -0.3229738 13.24213803 -1.125 19.9375 C-1.25696777 21.05189453 -1.38893555 22.16628906 -1.52490234 23.31445312 C-5.6504345 57.24457235 -11.06110342 91.02490216 -16.39173889 124.78134155 C-17.3951573 131.1368489 -18.3852277 137.49404667 -19.35464478 143.85482788 C-19.87629672 147.25928312 -20.4110342 150.66157147 -20.95019531 154.06329346 C-21.18876301 155.58548883 -21.42181901 157.10855988 -21.64892578 158.63250732 C-21.95529672 160.6822005 -22.28151228 162.72772635 -22.61328125 164.7734375 C-22.78641846 165.89153809 -22.95955566 167.00963867 -23.13793945 168.16162109 C-24.1454517 171.47890726 -25.26504066 172.89946593 -28 175 C-31.453125 175.390625 -31.453125 175.390625 -35.25 175.25 C-36.51328125 175.21390625 -37.7765625 175.1778125 -39.078125 175.140625 C-40.04234375 175.09421875 -41.0065625 175.0478125 -42 175 C-40.38405168 172.95880212 -38.7143618 170.95927063 -37 169 C-36.34 169 -35.68 169 -35 169 C-32.18057143 151.99095855 -29.52293704 134.9705219 -27.12451172 117.89694214 C-25.63457897 107.29851304 -24.0332504 96.72583997 -22.30834961 86.16259766 C-21.27303272 79.79786637 -20.37441635 73.43568927 -19.55859375 67.0390625 C-18.69385364 60.55604012 -17.58862905 54.10693562 -16.5378418 47.65209961 C-15.23023329 39.57353653 -14.04018971 31.48351771 -12.95141602 23.37255859 C-12.10524717 17.21049434 -12.10524717 17.21049434 -11 15 C-11.77601563 15.36351562 -12.55203125 15.72703125 -13.3515625 16.1015625 C-20.4569146 19.40834928 -27.60038986 22.55242269 -34.81640625 25.609375 C-37.51272461 26.78715333 -40.13382132 28.03142903 -42.75 29.375 C-46 31 -46 31 -48 31 C-47.97292969 32.16660156 -47.94585937 33.33320313 -47.91796875 34.53515625 C-47.9220549 41.53201373 -48.66544984 48.4776868 -49.3125 55.4375 C-49.45037205 56.95324954 -49.58781443 58.46903821 -49.72485352 59.98486328 C-50.00863171 63.12043026 -50.29423255 66.25582336 -50.58105469 69.39111328 C-50.9718817 73.67533345 -51.35182939 77.96043877 -51.7265625 82.24609375 C-51.78505875 82.91460861 -51.84355499 83.58312347 -51.90382385 84.27189636 C-52.02223143 85.62568867 -52.14060398 86.97948405 -52.25894165 88.33328247 C-53.16156498 98.65428892 -54.08648838 108.97289613 -55.04296875 119.2890625 C-55.22408799 121.25080935 -55.4051589 123.21256065 -55.58618164 125.17431641 C-55.93465717 128.95037699 -56.28730225 132.7260158 -56.64233398 136.50146484 C-57.50025995 145.73889411 -58.24702695 154.95994045 -58.65213013 164.22973633 C-58.82706232 167.97112538 -59.25956999 171.29784994 -60 175 C-63.63 175 -67.26 175 -71 175 C-71.2247528 166.78403663 -70.84929042 159.00455346 -69.5625 150.890625 C-68.92718491 146.4963623 -68.51451293 142.10894054 -68.125 137.6875 C-67.34789998 129.05731176 -66.33300648 120.47170339 -65.25 111.875 C-63.14180576 95.09195649 -61.44714067 78.26598367 -59.75 61.4375 C-59.68154373 60.75883629 -59.61308746 60.08017258 -59.54255676 59.3809433 C-58.68966848 50.92116503 -57.8422519 42.46084391 -57 34 C-58.76083676 34.79835879 -60.52145565 35.59719809 -62.28198242 36.39624023 C-63.26245041 36.84104233 -64.2429184 37.28584442 -65.25309753 37.74412537 C-74.72764097 42.0324465 -74.72764097 42.0324465 -83.625 47.375 C-86 49 -86 49 -88 49 C-102.08820664 87.91028501 -100.97502194 134.17319526 -104 175 C-106.97 175 -109.94 175 -113 175 C-112.39555436 163.10211938 -111.44627813 151.25837213 -110.32928467 139.39828491 C-109.87268036 134.54481408 -109.42599482 129.69043623 -108.98046875 124.8359375 C-108.89343689 123.88794785 -108.80640503 122.93995819 -108.71673584 121.96324158 C-108.03986674 114.5422499 -107.42893111 107.1187794 -106.875 99.6875 C-106.79886475 98.68775146 -106.72272949 97.68800293 -106.64428711 96.65795898 C-106.34732021 92.73871305 -106.05521338 88.81955745 -105.79101562 84.89794922 C-104.55661193 66.62254592 -102.87163424 51.81971728 -88.53125 38.75 C-77.09957372 29.93521347 -64.37431951 24.98906726 -50.75 20.6875 C-39.38341292 17.09377444 -29.46229644 12.39102108 -19.25341797 6.29492188 C-5.38876084 -1.67237405 -5.38876084 -1.67237405 0 0 Z " fill="#060503" transform="translate(557,424)"/>
<path d="M0 0 C1.08174162 3.36541838 0.92538169 4.29847322 0 8 C3.3 7.67 6.6 7.34 10 7 C6.55698516 10.44301484 2.75478322 12.98514564 -1.26171875 15.68359375 C-3.58953752 17.26565823 -5.78676629 18.78676629 -7.78125 20.78125 C-8.1834375 21.1834375 -8.585625 21.585625 -9 22 C-9.66 22 -10.32 22 -11 22 C-11.495 23.485 -11.495 23.485 -12 25 C-12.66 25 -13.32 25 -14 25 C-14.495 26.485 -14.495 26.485 -15 28 C-15.66 28 -16.32 28 -17 28 C-17.2371875 28.53882813 -17.474375 29.07765625 -17.71875 29.6328125 C-19.94439198 33.74482178 -23.01944794 37.26494852 -25.90625 40.9296875 C-29.52317733 46.23361451 -30.92457729 51.60988355 -30 58 C-27.91081227 65.03067967 -23.66532279 70.45665297 -19 76 C-13.70058846 74.13142137 -9.17753574 71.14901792 -4.43945312 68.18945312 C-3.79814453 67.79564453 -3.15683594 67.40183594 -2.49609375 66.99609375 C-1.63262329 66.45746704 -1.63262329 66.45746704 -0.75170898 65.90795898 C3.63293878 63.63527535 6.4767058 64.1209552 11.234375 65.328125 C12.44867188 65.63363281 13.66296875 65.93914062 14.9140625 66.25390625 C16.17992187 66.58261719 17.44578125 66.91132813 18.75 67.25 C20.00039063 67.56324219 21.25078125 67.87648438 22.5390625 68.19921875 C28.85473825 69.80818054 34.96168408 71.54219302 41 74 C41 76.97 41 79.94 41 83 C37.91552102 84.54223949 35.93186376 83.20921555 32.70703125 82.1640625 C32.08277756 81.96525482 31.45852386 81.76644714 30.81535339 81.56161499 C28.81208741 80.92304908 26.8120997 80.27494802 24.8125 79.625 C22.83058325 78.98279041 20.84804927 78.34291575 18.86320496 77.70980835 C17.04864622 77.13079615 15.23676853 76.54340164 13.42504883 75.95556641 C6.46427105 73.85906653 6.46427105 73.85906653 -0.23828125 75.65234375 C-1.25277344 76.40644531 -2.26726562 77.16054688 -3.3125 77.9375 C-8.86620926 82 -8.86620926 82 -11 82 C-11 82.66 -11 83.32 -11 84 C-10.26652344 84.26683594 -9.53304687 84.53367187 -8.77734375 84.80859375 C-6.04081478 85.98249155 -3.95765618 87.30660561 -1.5625 89.0625 C1.95989536 91.59274525 5.52433322 93.99388529 9.19384766 96.30126953 C27.57746779 107.86620169 27.57746779 107.86620169 33 116 C33.5625 118.6875 33.5625 118.6875 33 121 C31.3125 122.875 31.3125 122.875 29 124 C25.64383054 123.90677307 23.23743419 122.62623908 20.34375 121.07421875 C16.22289169 118.99839933 12.23612139 117.87272269 7.75 116.875 C-2.51293356 114.45297607 -12.65861017 111.65001216 -22.8125 108.8125 C-23.60893921 108.59035828 -24.40537842 108.36821655 -25.22595215 108.13934326 C-32.48977224 106.11309614 -39.75048176 104.0769208 -47 102 C-47.4921875 98.83984375 -47.4921875 98.83984375 -47 95 C-44.70569225 92.6316577 -41.99308416 91.15342873 -39.125 89.5625 C-38.37863281 89.11712891 -37.63226563 88.67175781 -36.86328125 88.21289062 C-31.38508065 85 -31.38508065 85 -29 85 C-31.02113582 81.33201277 -33.05274289 77.85394813 -35.5625 74.5 C-41.62495715 66.18044342 -42.85117722 57.09978937 -42 47 C-40.05308775 37.99378003 -33.77969947 29.98799901 -28 23 C-27.34 23 -26.68 23 -26 23 C-25.773125 22.443125 -25.54625 21.88625 -25.3125 21.3125 C-23.62449964 18.33840412 -21.53323483 16.27991135 -19 14 C-18.34 14 -17.68 14 -17 14 C-16.67 13.01 -16.34 12.02 -16 11 C-14.09240404 9.38099647 -12.208067 7.8998466 -10.1875 6.4375 C-8.60001953 5.25994141 -8.60001953 5.25994141 -6.98046875 4.05859375 C-4.676471 2.46723488 -2.54359798 1.13938408 0 0 Z M-27.625 93 C-28.85089844 93.8353125 -28.85089844 93.8353125 -30.1015625 94.6875 C-30.72804688 95.120625 -31.35453125 95.55375 -32 96 C-28.95541168 97.69627064 -26.22308651 98.47271747 -22.796875 99.0703125 C-21.8171875 99.24433594 -20.8375 99.41835938 -19.828125 99.59765625 C-18.81234375 99.77167969 -17.7965625 99.94570313 -16.75 100.125 C-15.203125 100.39763672 -15.203125 100.39763672 -13.625 100.67578125 C-11.08425433 101.12276428 -8.54264178 101.56395534 -6 102 C-7.37485532 100.45833358 -7.37485532 100.45833358 -9 99 C-9.66 99 -10.32 99 -11 99 C-11 98.34 -11 97.68 -11 97 C-13.17458278 95.178958 -13.17458278 95.178958 -15.875 93.375 C-17.23238281 92.42753906 -17.23238281 92.42753906 -18.6171875 91.4609375 C-22.65079807 88.98787135 -23.96556951 90.49067624 -27.625 93 Z " fill="#DCAD2E" transform="translate(374,298)"/>
<path d="M0 0 C0.63006599 2.85953028 1.11801566 5.11398061 1 8 C-2.01888104 12.11665596 -5.46210915 13.85948545 -10 16 C-12.5615569 17.53855795 -15.10026042 19.10950886 -17.6328125 20.6953125 C-19.80178813 21.89075451 -21.58213207 22.54316781 -24 23 C-24 23.66 -24 24.32 -24 25 C-25.4609375 26.2890625 -25.4609375 26.2890625 -27.375 27.625 C-28.00148437 28.07101562 -28.62796875 28.51703125 -29.2734375 28.9765625 C-31 30 -31 30 -33 30 C-33 30.66 -33 31.32 -33 32 C-36.46153846 35 -36.46153846 35 -39 35 C-39.33 35.99 -39.66 36.98 -40 38 C-40.66 38 -41.32 38 -42 38 C-42.309375 38.61875 -42.61875 39.2375 -42.9375 39.875 C-43.625 41.25 -44.3125 42.625 -45 44 C-45.66 44 -46.32 44 -47 44 C-47.2475 44.66 -47.495 45.32 -47.75 46 C-48.72124903 48.33099767 -49.76043724 50.46415923 -50.9375 52.6875 C-57.43874541 65.61721568 -57.20440353 79.30032549 -57.1875 93.4375 C-57.18756042 94.21479462 -57.18762085 94.99208923 -57.18768311 95.79293823 C-57.16860625 113.23916852 -56.29704792 130.60566094 -55 148 C-54.92523438 149.00385742 -54.85046875 150.00771484 -54.7734375 151.04199219 C-53.87135112 162.45589065 -51.90564649 173.54304786 -49.48925781 184.72851562 C-49.04059605 186.81152411 -48.60673033 188.89684553 -48.1796875 190.984375 C-46.70917129 198.07381107 -45.00417394 205.04380884 -43 212 C-42.63662794 213.29945378 -42.27335377 214.59893493 -41.91015625 215.8984375 C-37.92261235 229.99329755 -32.9445405 243.41542364 -26.61328125 256.625 C-24.65799345 260.71548102 -22.82090341 264.84834023 -21 269 C-24.87788508 269.75734464 -28.14330541 269.95763244 -32 269 C-35.43398737 265.63401238 -37.10609712 261.34896217 -39 257 C-39.73763647 255.39814043 -40.47595915 253.79659673 -41.21484375 252.1953125 C-52.70720283 226.77522294 -59.38792633 199.6179792 -63 172 C-63.1247168 171.10023438 -63.24943359 170.20046875 -63.37792969 169.2734375 C-65.52314768 153.55243253 -66.48208779 137.83920587 -67.1875 122 C-67.23029083 121.04070587 -67.27308167 120.08141174 -67.31716919 119.0930481 C-69.4958402 69.20153531 -69.4958402 69.20153531 -62 53 C-61.66355469 52.1853125 -61.32710938 51.370625 -60.98046875 50.53125 C-58.5734037 45.15575492 -55.35812547 40.54439986 -51.8125 35.875 C-51.37212402 35.29371338 -50.93174805 34.71242676 -50.47802734 34.11352539 C-49.37023418 32.70037626 -48.19044798 31.34425807 -47 30 C-46.34 30 -45.68 30 -45 30 C-44.67 29.01 -44.34 28.02 -44 27 C-43.34 27 -42.68 27 -42 27 C-41.67 26.01 -41.34 25.02 -41 24 C-40.34 24 -39.68 24 -39 24 C-38.67 23.01 -38.34 22.02 -38 21 C-36.57983398 19.70068359 -36.57983398 19.70068359 -34.74609375 18.3984375 C-34.06385742 17.91213867 -33.38162109 17.42583984 -32.67871094 16.92480469 C-31.56931152 16.15765137 -31.56931152 16.15765137 -30.4375 15.375 C-29.68114258 14.8480957 -28.92478516 14.32119141 -28.14550781 13.77832031 C-22.96724634 10.22511723 -17.69558954 6.87803158 -12.25 3.75 C-11.59572021 3.36763184 -10.94144043 2.98526367 -10.26733398 2.59130859 C-6.71187629 0.61261105 -4.08919989 -0.468229 0 0 Z " fill="#060503" transform="translate(138,330)"/>
<path d="M0 0 C17.38333837 7.67765803 36.79035501 11.92337456 55.22192383 16.32861328 C59.69965189 17.40285124 64.11979391 18.61643437 68.54296875 19.8984375 C75.36878805 21.8658419 82.23344538 23.62482068 89.13101196 25.32147217 C92.59684695 26.17494842 96.05997019 27.03931909 99.5234375 27.90234375 C100.22316177 28.07654846 100.92288605 28.25075317 101.64381409 28.43023682 C108.85098923 30.22538182 116.05372315 32.03657806 123.25 33.875 C124.38783936 34.16093018 125.52567871 34.44686035 126.69799805 34.74145508 C127.7425415 35.00982178 128.78708496 35.27818848 129.86328125 35.5546875 C130.77505127 35.78655762 131.68682129 36.01842773 132.6262207 36.25732422 C134.9375 37 134.9375 37 137.9375 39 C132.93848705 40.66633765 127.82789164 39.69825038 122.625 39.3125 C121.38113525 39.22073486 120.13727051 39.12896973 118.85571289 39.03442383 C76.55731995 35.69765351 34.07880216 28.77207823 -3.87109375 9.015625 C-9.05530829 6.61295872 -14.24590175 6.29585044 -19.8125 7.6875 C-23.31987285 9.73346749 -24.53801842 12.09048196 -25.60620117 15.97949219 C-27.2018032 23.3855824 -27.51920842 30.69561434 -27.6875 38.25 C-27.70651367 38.96491608 -27.72552734 39.67983215 -27.74511719 40.41641235 C-28.07209603 52.91045496 -28.09078454 65.40496703 -28.0859375 77.90234375 C-28.08566181 78.68964245 -28.08538612 79.47694115 -28.08510208 80.28809738 C-28.08102867 88.34781308 -28.06754351 96.40743255 -28.0350132 104.46708584 C-28.02322034 107.53422494 -28.0149822 110.6013684 -28.0071907 113.66851997 C-28.00010439 115.82372069 -27.98744832 117.97884443 -27.97470093 120.13401794 C-27.97144806 121.42034622 -27.96819519 122.7066745 -27.96484375 124.03198242 C-27.95960693 125.16472092 -27.95437012 126.29745941 -27.94897461 127.46452332 C-28.0625 130 -28.0625 130 -29.0625 131 C-35.41544118 130.64705882 -35.41544118 130.64705882 -37.9375 128.125 C-39.8311579 124.54809064 -40.19164215 121.75087362 -40.20776367 117.76708984 C-40.21404785 116.69148804 -40.22033203 115.61588623 -40.22680664 114.50769043 C-40.22861938 112.75204773 -40.22861938 112.75204773 -40.23046875 110.9609375 C-40.2346582 109.74394165 -40.23884766 108.5269458 -40.24316406 107.27307129 C-40.25298817 103.30702759 -40.25308192 99.34104844 -40.25 95.375 C-40.24988041 94.70415627 -40.24976082 94.03331253 -40.2496376 93.3421402 C-40.23197957 15.54957981 -40.23197957 15.54957981 -29.53125 3.23828125 C-20.39008869 -5.34194516 -10.97739591 -5.16021222 0 0 Z " fill="#050403" transform="translate(308.0625,438)"/>
<path d="M0 0 C1.27963623 0.00862061 2.55927246 0.01724121 3.87768555 0.02612305 C7.40428936 0.05434995 10.93041219 0.10153069 14.45672607 0.15429688 C16.84367295 0.18885624 19.23064785 0.21772389 21.61767578 0.24609375 C25.7833125 0.29814957 29.94828837 0.36915955 34.11340332 0.45297241 C35.73189635 0.48405074 37.35047802 0.51084144 38.96911621 0.53311157 C47.34678354 0.65594203 54.913395 0.85448556 62.75 4.1875 C64.24481683 12.27703703 64.24481683 12.27703703 62.1875 16.0625 C57.25297765 20.36439128 51.49276322 21.99352865 45.3125 23.6875 C39.91486303 25.17484886 34.85463763 26.87393564 29.75 29.1875 C29.75 30.5075 29.75 31.8275 29.75 33.1875 C31.4 33.8475 33.05 34.5075 34.75 35.1875 C34.75 35.5175 34.75 35.8475 34.75 36.1875 C29.47 36.1875 24.19 36.1875 18.75 36.1875 C14.69487511 28.81454565 14.69487511 28.81454565 14.9375 26.0546875 C16.37576561 22.7494425 19.602045 21.55937144 22.75 20.1875 C27.34790281 18.78474999 31.88091708 17.9971475 36.625 17.25 C41.43117354 16.48344574 45.9636135 15.36045432 50.59375 13.87109375 C52.63196542 13.22492038 54.67080208 12.68367223 56.75 12.1875 C56.42 11.5275 56.09 10.8675 55.75 10.1875 C48.49514747 10.01724278 41.24011173 9.85776755 33.98486328 9.70532227 C31.52354736 9.65238901 29.06228066 9.59710695 26.60107422 9.53930664 C1.89635543 8.61815368 1.89635543 8.61815368 -22.5 11.9375 C-23.63091064 12.20191895 -23.63091064 12.20191895 -24.78466797 12.47167969 C-32.60440495 14.38610365 -39.72607361 17.30895802 -46.8359375 21.07421875 C-60.3845381 28.20822401 -74.77854753 33.73245728 -90.25 34.1875 C-90.25 31.2175 -90.25 28.2475 -90.25 25.1875 C-86.67050553 23.94297378 -83.07098738 22.83771777 -79.421875 21.8203125 C-78.53886719 21.57410156 -77.65585938 21.32789063 -76.74609375 21.07421875 C-74.93188262 20.57098807 -73.11678895 20.07092708 -71.30078125 19.57421875 C-62.48820185 17.10567329 -54.29583776 13.78222507 -46.125 9.6875 C-38.39423266 5.95172682 -30.63199533 3.981213 -22.25 2.1875 C-21.58613281 2.00872314 -20.92226563 1.82994629 -20.23828125 1.64575195 C-13.48974679 -0.09767086 -6.9398284 -0.0752773 0 0 Z " fill="#060503" transform="translate(321.25,562.8125)"/>
<path d="M0 0 C5.33845265 4.34525216 9.86239935 11.08968115 11 18 C11.09454125 20.71945114 11.13958831 23.40671215 11.125 26.125 C11.13080078 27.21748047 11.13080078 27.21748047 11.13671875 28.33203125 C11.12671034 33.74657931 11.12671034 33.74657931 10 36 C10.66 36 11.32 36 12 36 C12 44.25 12 52.5 12 61 C11.01 61.495 11.01 61.495 10 62 C10.495 72.395 10.495 72.395 11 83 C12.65 83 14.3 83 16 83 C16.28875 82.4225 16.5775 81.845 16.875 81.25 C17.91666667 79.16666667 18.95833333 77.08333333 20 75 C20.66 75 21.32 75 22 75 C22.33 76.65 22.66 78.3 23 80 C23.99 79.67 24.98 79.34 26 79 C24.71184124 83.61590222 22.96318724 86.29601595 20 90 C18.4517668 92.70407673 16.98986838 95.4482016 15.51953125 98.1953125 C14.1471036 100.72848231 12.73797882 103.22070326 11.25 105.6875 C10.86328125 106.33074219 10.4765625 106.97398437 10.078125 107.63671875 C9.72234375 108.08660156 9.3665625 108.53648437 9 109 C8.34 109 7.68 109 7 109 C7 109.66 7 110.32 7 111 C3.625 111.625 3.625 111.625 0 112 C-2.70116608 109.29883392 -2.29904599 107.83410767 -2.3125 104.0625 C-2.32925781 103.00160156 -2.34601563 101.94070313 -2.36328125 100.84765625 C-2.05297452 97.56107424 -1.4780999 94.96908803 -0.5546875 91.83203125 C1.18390749 85.7859342 1.7708616 79.88562864 2.1875 73.625 C2.26572998 72.51866211 2.34395996 71.41232422 2.42456055 70.27246094 C2.63346588 67.18239339 2.82205178 64.09198521 3 61 C3.07476562 59.75476563 3.14953125 58.50953125 3.2265625 57.2265625 C3.70279821 40.73148917 1.41910676 22.41213515 -9.34765625 9.3671875 C-12.07614398 7.10957354 -14.61519879 7.54464858 -18.03515625 7.625 C-22.57256242 8.19890118 -26.73106019 9.67128487 -31.01953125 11.22265625 C-34.16128525 12.04206522 -35.92032186 11.90511798 -39 11 C-39.29860287 7.71536848 -39.44690242 5.69066738 -37.625 2.875 C-27.20530231 -4.56764121 -10.93942785 -7.7700609 0 0 Z " fill="#E9B62D" transform="translate(413,295)"/>
<path d="M0 0 C4.2632659 8.52653181 3.15913291 18.78050718 3.125 28.125 C3.12306641 29.40076904 3.12113281 30.67653809 3.11914062 31.9909668 C3.07777996 41.02884607 2.79404877 49.99605411 2 59 C6.18486207 54.94659957 9.70180197 50.63339512 13.23046875 46.01171875 C13.81441406 45.34785156 14.39835937 44.68398438 15 44 C15.66 44 16.32 44 17 44 C17.2165625 43.45859375 17.433125 42.9171875 17.65625 42.359375 C19.46499997 39.18354656 21.91723799 36.79271919 24.5 34.25 C24.99886719 33.74339844 25.49773437 33.23679687 26.01171875 32.71484375 C29.74658861 29 29.74658861 29 32 29 C32.495 27.515 32.495 27.515 33 26 C34.77734375 24.39453125 34.77734375 24.39453125 36.9375 22.8125 C37.64777344 22.28269531 38.35804688 21.75289063 39.08984375 21.20703125 C41 20 41 20 43 20 C41.25 23.875 41.25 23.875 39 25 C39.495 26.98 39.495 26.98 40 29 C39.38125 29.12375 38.7625 29.2475 38.125 29.375 C35.80879168 29.87197356 35.80879168 29.87197356 34 32 C35.65 32.66 37.3 33.32 39 34 C39 35.32 39 36.64 39 38 C38.360625 38.268125 37.72125 38.53625 37.0625 38.8125 C34.66868314 39.88667752 34.66868314 39.88667752 34 43 C32.29296875 44.6484375 32.29296875 44.6484375 30.1875 46.375 C27.03968063 49.02727714 24.55083424 51.7624027 22 55 C21.34 55 20.68 55 20 55 C19.731875 55.5775 19.46375 56.155 19.1875 56.75 C17.98199197 59.03412048 16.56864477 60.95431531 15 63 C15.8765625 63.20753906 16.753125 63.41507812 17.65625 63.62890625 C28.97696555 66.37855159 40.13209169 69.60487175 51.30078125 72.91259766 C54.75800749 73.92886519 58.21881636 74.93140027 61.68161011 75.9284668 C64.80608665 76.8287225 67.92902143 77.73425909 71.05181885 78.64031982 C72.59688516 79.08736329 74.14258021 79.5322396 75.68890381 79.97491455 C77.86471267 80.59834254 80.03801061 81.22989313 82.2109375 81.86328125 C83.47212402 82.22719971 84.73331055 82.59111816 86.03271484 82.96606445 C89 84 89 84 91 86 C70.81405498 92.72864834 37.70339979 80.00038741 18 74 C16.90945313 73.67773438 15.81890625 73.35546875 14.6953125 73.0234375 C12.45961262 72.36077853 10.22783914 71.68850305 8 71 C9.84852232 67.23634193 11.90503568 63.63127149 14 60 C13.34 59.67 12.68 59.34 12 59 C12 58.34 12 57.68 12 57 C11.34 56.67 10.68 56.34 10 56 C10.33 55.34 10.66 54.68 11 54 C8.16967459 55.4151627 7.64383332 57.6264061 6.390625 60.40625 C5 62 5 62 -1 63 C-1.33 55.41 -1.66 47.82 -2 40 C-1.01 40 -0.02 40 1 40 C1 31.75 1 23.5 1 15 C0.34 15 -0.32 15 -1 15 C-0.67 10.05 -0.34 5.1 0 0 Z " fill="#D4A831" transform="translate(424,316)"/>
<path d="M0 0 C-0.66 0 -1.32 0 -2 0 C-2.33 0.99 -2.66 1.98 -3 3 C-7.08439771 5.50334053 -11.08839103 5.06440117 -15.6953125 4.77734375 C-18.09325607 4.79060135 -18.09325607 4.79060135 -19.8046875 6.50390625 C-20.19914063 6.99761719 -20.59359375 7.49132812 -21 8 C-16.55314722 10.38224256 -13.04771183 11.14021422 -8 11 C-8.99 10.34 -9.98 9.68 -11 9 C-7.87819599 8.03338637 -5.47916205 8.01011091 -2.25 8.4375 C-1.45078125 8.53933594 -0.6515625 8.64117187 0.171875 8.74609375 C0.77515625 8.82988281 1.3784375 8.91367187 2 9 C-12.44173629 23.44173629 -60.94368951 17.05455189 -79.88549805 17.06591797 C-90.59038133 17.06432026 -101.29519328 17.03949948 -112 17 C-111.203125 11.21875 -111.203125 11.21875 -109.375 9.25 C-95.44852131 1.92027437 -75.86314229 4.93894158 -60.70922852 5.09594727 C-43.88228089 5.25861929 -26.84433746 5.3856126 -10.5 0.8125 C-3.37157534 -1.12385845 -3.37157534 -1.12385845 0 0 Z " fill="#CCA12A" transform="translate(540,411)"/>
<path d="M0 0 C1.9375 1.25 1.9375 1.25 3.9375 4.25 C1.08813897 7.25765886 -1.29761958 9.52845212 -5.0625 11.25 C0.37956442 12.72847993 5.80376145 14.1055586 11.37890625 14.9765625 C12.13373291 15.09604248 12.88855957 15.21552246 13.66625977 15.33862305 C15.15813203 15.56778412 16.65218668 15.78323881 18.14819336 15.98364258 C22.85496282 16.71133571 24.81480795 17.75186978 27.9375 21.25 C30.78540001 23.43037752 33.74012003 25.45687425 36.6875 27.5 C37.48027344 28.05429687 38.27304687 28.60859375 39.08984375 29.1796875 C41.03658998 30.54006438 42.98583548 31.89669316 44.9375 33.25 C44.4425 34.24 44.4425 34.24 43.9375 35.25 C43.19628906 35.00765625 42.45507812 34.7653125 41.69140625 34.515625 C35.615316 32.58198551 29.59806601 30.89676031 23.375 29.5 C11.73649405 26.88178449 0.31682074 23.42913273 -11.13378906 20.10058594 C-14.44052137 19.1402112 -17.75052746 18.19211535 -21.0625 17.25 C-21.55078125 14.0859375 -21.55078125 14.0859375 -21.0625 10.25 C-18.78906583 7.90239054 -16.09551576 6.44578342 -13.25 4.875 C-12.51201172 4.43800781 -11.77402344 4.00101562 -11.01367188 3.55078125 C-3.04558444 -1.10748525 -3.04558444 -1.10748525 0 0 Z " fill="#0E0B05" transform="translate(348.0625,382.75)"/>
<path d="M0 0 C2.475 0.495 2.475 0.495 5 1 C4.67 1.66 4.34 2.32 4 3 C3.34 3 2.68 3 2 3 C2.495 3.45375 2.99 3.9075 3.5 4.375 C5 6 5 6 5 8 C4.34 8 3.68 8 3 8 C2.896875 8.598125 2.79375 9.19625 2.6875 9.8125 C1.90175967 12.31258286 1.03081147 13.37535082 -1 15 C-1.66 15 -2.32 15 -3 15 C-3.33 15.99 -3.66 16.98 -4 18 C-4.66 18 -5.32 18 -6 18 C-6.33 18.99 -6.66 19.98 -7 21 C-7.66 21 -8.32 21 -9 21 C-9.2371875 21.53238281 -9.474375 22.06476563 -9.71875 22.61328125 C-11.36795297 25.68542459 -13.40453934 28.41252095 -15.5 31.1875 C-15.90347656 31.73341797 -16.30695313 32.27933594 -16.72265625 32.84179688 C-19.75209263 36.87604632 -19.75209263 36.87604632 -22 38 C-23.22886899 41.68660697 -23.14560987 45.10062975 -23.125 48.9375 C-23.12886719 49.65357422 -23.13273437 50.36964844 -23.13671875 51.10742188 C-23.19662782 56.15510257 -23.19662782 56.15510257 -22 61 C-21.34 61.33 -20.68 61.66 -20 62 C-20.33 62.66 -20.66 63.32 -21 64 C-20.195625 64.28875 -19.39125 64.5775 -18.5625 64.875 C-16 66 -16 66 -15 68 C-15.9375 70.125 -15.9375 70.125 -17 72 C-18.98 71.67 -20.96 71.34 -23 71 C-23 68.36 -23 65.72 -23 63 C-25.475 63.495 -25.475 63.495 -28 64 C-28.84454356 60.62182575 -29.10844919 58.32534757 -28 55 C-28.66 55 -29.32 55 -30 55 C-30 53.68 -30 52.36 -30 51 C-30.66 51 -31.32 51 -32 51 C-33.33743168 43.3766394 -32.02765738 38.13662098 -29 31 C-28.34 31 -27.68 31 -27 31 C-26.67 30.01 -26.34 29.02 -26 28 C-25.34 28.33 -24.68 28.66 -24 29 C-24 29.99 -24 30.98 -24 32 C-23.45627049 28.94152152 -23 26.11227195 -23 23 C-22.01 22.67 -21.02 22.34 -20 22 C-17.77674353 19.43988649 -15.88120591 16.82180887 -14 14 C-13.01 14 -12.02 14 -11 14 C-11 13.34 -11 12.68 -11 12 C-10.34 12 -9.68 12 -9 12 C-8.9175 11.236875 -8.835 10.47375 -8.75 9.6875 C-8 7 -8 7 -6.125 5.1875 C-4 4 -4 4 -1 4 C-0.67 2.68 -0.34 1.36 0 0 Z " fill="#EBB62D" transform="translate(366,305)"/>
<path d="M0 0 C17.4799485 4.84070514 34.90060885 9.80109508 52.21484375 15.2109375 C55.90452058 16.36171152 59.60067261 17.47542236 63.31640625 18.5390625 C64.1163501 18.76819336 64.91629395 18.99732422 65.74047852 19.23339844 C67.19376856 19.64606686 68.64858634 20.05341201 70.10522461 20.45410156 C73.05252525 21.29108786 74.79475882 21.79475882 77 24 C56.81405498 30.72864834 23.70339979 18.00038741 4 12 C2.90945313 11.67773438 1.81890625 11.35546875 0.6953125 11.0234375 C-1.54038738 10.36077853 -3.77216086 9.68850305 -6 9 C-4.4707257 5.55913282 -2.37237071 2.90760069 0 0 Z " fill="#1C1708" transform="translate(438,378)"/>
<path d="M0 0 C0.85698486 0.20343018 1.71396973 0.40686035 2.59692383 0.61645508 C3.50982178 0.84357178 4.42271973 1.07068848 5.36328125 1.3046875 C6.29487061 1.53115967 7.22645996 1.75763184 8.1862793 1.9909668 C16.46352674 4.04312429 24.58563592 6.490601 32.67578125 9.1796875 C32.67578125 12.1496875 32.67578125 15.1196875 32.67578125 18.1796875 C29.59130227 19.72192699 27.60764501 18.38890305 24.3828125 17.34375 C23.75855881 17.14494232 23.13430511 16.94613464 22.49113464 16.74130249 C20.48786866 16.10273658 18.48788095 15.45463552 16.48828125 14.8046875 C14.5063645 14.16247791 12.52383052 13.52260325 10.53898621 12.88949585 C8.72442747 12.31048365 6.91254978 11.72308914 5.10083008 11.13525391 C-1.80817323 9.03912854 -1.80817323 9.03912854 -8.45703125 10.796875 C-9.44445312 11.54195313 -10.431875 12.28703125 -11.44921875 13.0546875 C-15.11853561 15.78999643 -17.72671572 17.65762672 -22.32421875 18.1796875 C-23.64421875 16.5296875 -24.96421875 14.8796875 -26.32421875 13.1796875 C-22.93282225 9.38930318 -19.10178948 7.03261463 -14.76171875 4.4921875 C-14.08947266 4.08935547 -13.41722656 3.68652344 -12.72460938 3.27148438 C-5.13015273 -1.23088962 -5.13015273 -1.23088962 0 0 Z " fill="#161206" transform="translate(382.32421875,362.8203125)"/>
<path d="M0 0 C4.74568278 1.36618141 8.65506328 3.42376857 12.75 6.125 C13.35835693 6.52243408 13.96671387 6.91986816 14.59350586 7.3293457 C33.99082327 20.17837782 33.99082327 20.17837782 35.5625 27.6875 C35 30 35 30 33.3125 31.875 C30.3169473 33.33229591 29.12744025 33.06790643 26 32 C23.08616464 30.54308232 21.10396361 29.10984476 18.859375 26.73828125 C14.81918043 22.86918782 10.23038583 20.02485959 5.53125 17.01757812 C4.83515625 16.55673828 4.1390625 16.09589844 3.421875 15.62109375 C2.78862305 15.2130249 2.15537109 14.80495605 1.50292969 14.38452148 C-0.34513066 12.68206044 -0.47876282 11.40716245 -1 9 C-1.66 8.67 -2.32 8.34 -3 8 C-2.45276317 4.62537285 -1.9451 2.91765 0 0 Z " fill="#E2B12F" transform="translate(372,389)"/>
<path d="M0 0 C0.84479919 -0.00095673 1.68959839 -0.00191345 2.55999756 -0.00289917 C4.34875564 -0.00357971 6.13751619 -0.00173417 7.92626953 0.00244141 C10.6475184 0.00776485 13.3686002 0.00250596 16.08984375 -0.00390625 C17.83072953 -0.00324493 19.5716152 -0.00196264 21.3125 0 C22.12003723 -0.00202423 22.92757446 -0.00404846 23.75958252 -0.00613403 C28.4090503 0.0128848 32.81724317 0.40853229 37.421875 1.1328125 C39.9002872 1.19742179 42.38023323 1.21892337 44.859375 1.1953125 C46.09558594 1.18628906 47.33179688 1.17726563 48.60546875 1.16796875 C49.53488281 1.15636719 50.46429688 1.14476562 51.421875 1.1328125 C49.796875 4.0703125 49.796875 4.0703125 47.421875 7.1328125 C43.47244183 8.10338749 39.65357851 8.25550866 35.60009766 8.24633789 C34.47938873 8.24626236 33.35867981 8.24618683 32.20401001 8.24610901 C31.01004608 8.24094772 29.81608215 8.23578644 28.5859375 8.23046875 C27.35144867 8.2290538 26.11695984 8.22763885 24.84506226 8.22618103 C20.91230825 8.22059522 16.97961172 8.20804525 13.046875 8.1953125 C10.37630292 8.18973162 7.70573137 8.18573308 5.03515625 8.18164062 C-1.50262369 8.17063042 -8.04037024 8.15390635 -14.578125 8.1328125 C-13.258125 6.4828125 -11.938125 4.8328125 -10.578125 3.1328125 C-10.908125 2.4728125 -11.238125 1.8128125 -11.578125 1.1328125 C-7.70464859 -0.1583463 -4.03620958 -0.01001702 0 0 Z " fill="#ECB72C" transform="translate(444.578125,417.8671875)"/>
<path d="M0 0 C4.2632659 8.52653181 3.15913291 18.78050718 3.125 28.125 C3.12306641 29.40076904 3.12113281 30.67653809 3.11914062 31.9909668 C3.07777996 41.02884607 2.79404877 49.99605411 2 59 C2.78761719 58.21238281 3.57523437 57.42476563 4.38671875 56.61328125 C6.2578125 54.7421875 8.12890625 52.87109375 10 51 C10 51.66 10 52.32 10 53 C12.475 52.505 12.475 52.505 15 52 C15 52.66 15 53.32 15 54 C17.52588702 51.63707344 18.88820837 50.33537489 20 47 C20.66 47.33 21.32 47.66 22 48 C22 47.34 22 46.68 22 46 C24.31 46 26.62 46 29 46 C28.07161713 47.31896465 27.13194268 48.62998689 26.1875 49.9375 C25.66542969 50.66839844 25.14335937 51.39929688 24.60546875 52.15234375 C23 54 23 54 20 55 C19.690625 55.61875 19.38125 56.2375 19.0625 56.875 C17.79701313 59.40597375 16.32727163 60.44848558 14 62 C14 61.01 14 60.02 14 59 C13.34 59 12.68 59 12 59 C12 58.34 12 57.68 12 57 C11.34 56.67 10.68 56.34 10 56 C10.33 55.34 10.66 54.68 11 54 C8.16967459 55.4151627 7.64383332 57.6264061 6.390625 60.40625 C5 62 5 62 -1 63 C-1.33 55.41 -1.66 47.82 -2 40 C-1.01 40 -0.02 40 1 40 C1 31.75 1 23.5 1 15 C0.34 15 -0.32 15 -1 15 C-0.67 10.05 -0.34 5.1 0 0 Z " fill="#CEA42F" transform="translate(424,316)"/>
<path d="M0 0 C1.5 1.375 1.5 1.375 3 3 C3 3.66 3 4.32 3 5 C3.66 5 4.32 5 5 5 C5 5.99 5 6.98 5 8 C5.99 8.33 6.98 8.66 8 9 C8 10.65 8 12.3 8 14 C8.9590625 14.2165625 8.9590625 14.2165625 9.9375 14.4375 C12 15 12 15 13 16 C13.04092937 18.33297433 13.04241723 20.66705225 13 23 C13.66 23 14.32 23 15 23 C14.1875 25.9375 14.1875 25.9375 13 29 C12.01 29.33 11.02 29.66 10 30 C10 28.68 10 27.36 10 26 C8.8553125 25.9071875 8.8553125 25.9071875 7.6875 25.8125 C5 25 5 25 3.1875 22.625 C2 20 2 20 2 17 C1.01 16.67 0.02 16.34 -1 16 C-1.33 14.02 -1.66 12.04 -2 10 C-2.99 9.67 -3.98 9.34 -5 9 C-4.67 8.34 -4.34 7.68 -4 7 C-3.01 7 -2.02 7 -1 7 C-0.67 4.69 -0.34 2.38 0 0 Z " fill="#ECB82C" transform="translate(552,350)"/>
<path d="M0 0 C6.65497465 2.01196908 10.64257813 3.76478795 14 10 C14.66 10.66 15.32 11.32 16 12 C16.33 12.33 16.66 12.66 17 13 C18.66014616 13.36442233 20.32706064 13.69972883 22 14 C20.48065294 17.03869411 18.01995228 17.64410306 15 19 C14.34 19 13.68 19 13 19 C13 18.34 13 17.68 13 17 C12.42507813 17.19851563 11.85015625 17.39703125 11.2578125 17.6015625 C7.80299379 18.21123639 5.77415122 16.85288222 2.765625 15.25390625 C0.36841525 13.55146304 -0.24588413 11.79022873 -1 9 C-1.66 8.67 -2.32 8.34 -3 8 C-2.45276317 4.62537285 -1.9451 2.91765 0 0 Z " fill="#E7B42D" transform="translate(372,389)"/>
<path d="M0 0 C0.495 0.99 0.495 0.99 1 2 C0.67 2.99 0.34 3.98 0 5 C-0.66 5 -1.32 5 -2 5 C-2.0825 5.763125 -2.165 6.52625 -2.25 7.3125 C-3.18084016 10.64801058 -4.04135787 11.28078903 -7 13 C-9.796875 13.29296875 -9.796875 13.29296875 -12.75 13.1875 C-13.73484375 13.16042969 -14.7196875 13.13335937 -15.734375 13.10546875 C-16.48203125 13.07066406 -17.2296875 13.03585937 -18 13 C-18 13.66 -18 14.32 -18 15 C-21.3 15.33 -24.6 15.66 -28 16 C-28 15.34 -28 14.68 -28 14 C-29.32 13.34 -30.64 12.68 -32 12 C-30.625 10 -30.625 10 -28 8 C-25.44078254 7.78421438 -22.97136772 7.87861849 -20.40625 7.98046875 C-17.48378588 8.00419005 -15.53064686 7.4570391 -13 6 C-12.3503125 5.195625 -12.3503125 5.195625 -11.6875 4.375 C-9.55063754 2.63385281 -8.64015417 2.89306045 -5.9375 3 C-4.638125 3 -3.33875 3 -2 3 C-1.34 2.01 -0.68 1.02 0 0 Z " fill="#ECB72D" transform="translate(550,407)"/>
<path d="M0 0 C0.78375 0.04125 1.5675 0.0825 2.375 0.125 C0.725 1.775 -0.925 3.425 -2.625 5.125 C25.755 5.125 54.135 5.125 83.375 5.125 C83.375 5.455 83.375 5.785 83.375 6.125 C76.97840779 7.02582186 70.64126302 7.44888911 64.1875 7.6875 C63.04506836 7.7299585 61.90263672 7.77241699 60.72558594 7.81616211 C38.62290763 8.5077405 16.4853435 8.20658457 -5.625 8.125 C-4.59375 0.21875 -4.59375 0.21875 0 0 Z " fill="#9B7D28" transform="translate(433.625,419.875)"/>
<path d="M0 0 C1.125 3.75 1.125 3.75 0 6 C-0.66 6 -1.32 6 -2 6 C-2.13277344 6.73605469 -2.26554687 7.47210938 -2.40234375 8.23046875 C-2.66724609 9.69419922 -2.66724609 9.69419922 -2.9375 11.1875 C-3.11152344 12.15042969 -3.28554688 13.11335938 -3.46484375 14.10546875 C-3.80523494 15.94656272 -4.16981063 17.78347113 -4.56640625 19.61328125 C-5.11916249 22.25163304 -5.11916249 22.25163304 -5 26 C-4.34 26 -3.68 26 -3 26 C-3 27.32 -3 28.64 -3 30 C-2.34 30 -1.68 30 -1 30 C-1 32.64 -1 35.28 -1 38 C0.65 38 2.3 38 4 38 C4.12375 39.0725 4.2475 40.145 4.375 41.25 C4.90609759 44.43658556 5.44148532 46.27259931 7 49 C7.33 49.99 7.66 50.98 8 52 C7.01 52.495 7.01 52.495 6 53 C5.443125 51.989375 4.88625 50.97875 4.3125 49.9375 C2.82968 47.3241612 1.23705782 44.90486363 -0.5625 42.5 C-6.59614746 34.21997918 -7.92633123 25.06446359 -7 15 C-5.4951624 9.60642365 -3.1066862 4.6600293 0 0 Z " fill="#CFA632" transform="translate(339,330)"/>
<path d="M0 0 C4.29 0 8.58 0 13 0 C13.33 0.99 13.66 1.98 14 3 C12.68 3 11.36 3 10 3 C10.66 3.33 11.32 3.66 12 4 C12 4.66 12 5.32 12 6 C9.69 5.67 7.38 5.34 5 5 C4.938125 5.78375 4.87625 6.5675 4.8125 7.375 C4.544375 8.24125 4.27625 9.1075 4 10 C1.625 11.25 1.625 11.25 -1 12 C-4.11785113 12.64644661 -4.11785113 12.64644661 -5 15 C-5.66 15 -6.32 15 -7 15 C-6.59639243 9.75310158 -5.94225829 7.4644088 -2 4 C-1.34 2.68 -0.68 1.36 0 0 Z " fill="#EDB82C" transform="translate(480,329)"/>
<path d="M0 0 C2.375 0.1875 2.375 0.1875 5 1 C6.3125 3.5625 6.3125 3.5625 7 6 C3.83461369 10.31643588 0.32836907 10.86308852 -4.66015625 11.80078125 C-7 12 -7 12 -10 11 C-10.125 8.125 -10.125 8.125 -10 5 C-7.62216162 2.62216162 -6.27926335 2.40990792 -3 2 C-2.34 2.33 -1.68 2.66 -1 3 C-0.67 2.01 -0.34 1.02 0 0 Z " fill="#EBB72D" transform="translate(384,295)"/>
<path d="M0 0 C2.16874252 0.50603992 3.99967627 0.99983813 6 2 C6 2.66 6 3.32 6 4 C4.02 4 2.04 4 0 4 C0.2475 4.7425 0.495 5.485 0.75 6.25 C1 9 1 9 -0.625 11.375 C-3 13 -3 13 -5.75 12.75 C-6.4925 12.5025 -7.235 12.255 -8 12 C-8 12.66 -8 13.32 -8 14 C-8.66 14 -9.32 14 -10 14 C-10.0825 14.61875 -10.165 15.2375 -10.25 15.875 C-11 18 -11 18 -13.0625 19.25 C-13.701875 19.4975 -14.34125 19.745 -15 20 C-15 19.34 -15 18.68 -15 18 C-16.65 18.33 -18.3 18.66 -20 19 C-20 18.34 -20 17.68 -20 17 C-17.9652274 15.48360285 -15.93425513 14.07224849 -13.8125 12.6875 C-9.37791998 9.78549502 -5.76128052 6.77464208 -2 3 C-1.34 3 -0.68 3 0 3 C0 2.01 0 1.02 0 0 Z " fill="#ECB72B" transform="translate(454,350)"/>
<path d="M0 0 C3.2605096 3.2605096 3.05467405 6.89083745 3.0625 11.3125 C3.041875 12.529375 3.02125 13.74625 3 15 C3.66 15 4.32 15 5 15 C5.05871491 19.29160791 5.09383483 23.58311058 5.125 27.875 C5.14175781 29.07898438 5.15851563 30.28296875 5.17578125 31.5234375 C5.25222893 45.58980998 5.25222893 45.58980998 3 52 C2.01 52.495 2.01 52.495 1 53 C1.0721875 51.77925781 1.144375 50.55851562 1.21875 49.30078125 C1.99300486 35.807018 2.50266779 22.81940545 0.4375 9.41015625 C0.02902178 6.22621439 -0.07829067 3.20502423 0 0 Z " fill="#D0A834" transform="translate(414,322)"/>
<path d="M0 0 C0.66 0 1.32 0 2 0 C2.33 2.64 2.66 5.28 3 8 C4.98 8 6.96 8 9 8 C9 7.34 9 6.68 9 6 C9.61875 5.855625 10.2375 5.71125 10.875 5.5625 C13.03258322 5.06847775 13.03258322 5.06847775 15 4 C13.87548273 6.9719385 12.77706209 9.33440687 11 12 C10.34 12 9.68 12 9 12 C9 12.66 9 13.32 9 14 C5.625 14.625 5.625 14.625 2 15 C0 13 0 13 -0.1953125 9.9609375 C-0.17210937 8.77757812 -0.14890625 7.59421875 -0.125 6.375 C-0.10695313 5.18648438 -0.08890625 3.99796875 -0.0703125 2.7734375 C-0.04710937 1.85820312 -0.02390625 0.94296875 0 0 Z " fill="#BF982E" transform="translate(411,392)"/>
<path d="M0 0 C0.66 0.33 1.32 0.66 2 1 C1.67 8.26 1.34 15.52 1 23 C1.99 23 2.98 23 4 23 C4 23.66 4 24.32 4 25 C2.02 25.33 0.04 25.66 -2 26 C-2.33 18.41 -2.66 10.82 -3 3 C-2.01 3 -1.02 3 0 3 C0 2.01 0 1.02 0 0 Z " fill="#DAAF33" transform="translate(425,353)"/>
<path d="M0 0 C1 3 1 3 0 6 C-0.89964444 16.43587546 4.13376544 23.72860928 10 32 C9.09121094 31.54367187 9.09121094 31.54367187 8.1640625 31.078125 C6.57531829 30.28662066 4.97756783 29.51312754 3.375 28.75 C-0.78469987 25.68495799 -1.15750323 20.86382588 -2 16 C-2.11405904 13.98142026 -2.17472023 11.95925921 -2.1875 9.9375 C-2.20167969 8.91527344 -2.21585937 7.89304687 -2.23046875 6.83984375 C-2.00158808 4.01956841 -1.45275779 2.3944664 0 0 Z " fill="#C09B2F" transform="translate(344,342)"/>
<path d="M0 0 C1.32 0 2.64 0 4 0 C4 0.99 4 1.98 4 3 C4.66 3 5.32 3 6 3 C6 2.01 6 1.02 6 0 C6.66 0 7.32 0 8 0 C8 1.32 8 2.64 8 4 C8.66 4 9.32 4 10 4 C10.33 3.01 10.66 2.02 11 1 C11.33 3.31 11.66 5.62 12 8 C10.3125 9.5625 10.3125 9.5625 8 11 C5.3125 10.8125 5.3125 10.8125 3 10 C2.67 9.34 2.34 8.68 2 8 C3.32 8 4.64 8 6 8 C5.195625 7.236875 4.39125 6.47375 3.5625 5.6875 C1 3 1 3 0 0 Z " fill="#C99E29" transform="translate(395,411)"/>
<path d="M0 0 C-2.97047434 0.86240947 -5.57213323 1.10740309 -8.66015625 1.0625 C-9.53607422 1.05476563 -10.41199219 1.04703125 -11.31445312 1.0390625 C-12.67473633 1.01972656 -12.67473633 1.01972656 -14.0625 1 C-15.86582512 0.97447523 -17.66922101 0.95344784 -19.47265625 0.9375 C-20.26937744 0.92589844 -21.06609863 0.91429687 -21.88696289 0.90234375 C-24.19202719 0.91284632 -24.19202719 0.91284632 -27 2 C-28.72795352 2.06802967 -30.45835365 2.08495645 -32.1875 2.0625 C-33.53908203 2.04896484 -33.53908203 2.04896484 -34.91796875 2.03515625 C-35.60503906 2.02355469 -36.29210937 2.01195312 -37 2 C-27.44047998 -4.37301335 -10.66815494 -3.28250921 0 0 Z " fill="#CEA632" transform="translate(523,325)"/>
<path d="M0 0 C0.66 0.66 1.32 1.32 2 2 C4.58354218 2.16687448 4.58354218 2.16687448 7 2 C7.12375 3.0725 7.2475 4.145 7.375 5.25 C7.90609759 8.43658556 8.44148532 10.27259931 10 13 C10.33 13.99 10.66 14.98 11 16 C10.34 16.33 9.68 16.66 9 17 C8.443125 15.989375 7.88625 14.97875 7.3125 13.9375 C5.78067653 11.23072949 4.11298798 8.73929163 2.25 6.25 C0 3 0 3 0 0 Z " fill="#CBA02D" transform="translate(336,366)"/>
<path d="M0 0 C-0.66 0 -1.32 0 -2 0 C-2.33 0.99 -2.66 1.98 -3 3 C-7.481853 5.66966391 -12.27200952 5.22843548 -17.3125 5.125 C-18.14845703 5.11597656 -18.98441406 5.10695313 -19.84570312 5.09765625 C-21.89725969 5.07420989 -23.94866777 5.03834266 -26 5 C-26 4.67 -26 4.34 -26 4 C-24.92621094 3.80664062 -23.85242188 3.61328125 -22.74609375 3.4140625 C-21.30986267 3.15122282 -19.8736666 2.88819176 -18.4375 2.625 C-17.73302734 2.49867188 -17.02855469 2.37234375 -16.30273438 2.2421875 C-12.84837558 1.60543933 -9.51413589 0.88598637 -6.16015625 -0.1640625 C-3 -1 -3 -1 0 0 Z " fill="#B08D2A" transform="translate(540,411)"/>
<path d="M0 0 C3.85550018 3.63635985 6.86741138 7.41691848 9.8125 11.8125 C10.21919922 12.40998047 10.62589844 13.00746094 11.04492188 13.62304688 C12.03479703 15.07874564 13.01809735 16.53891174 14 18 C13.67 18.66 13.34 19.32 13 20 C12.01 19.67 11.02 19.34 10 19 C10 17.35 10 15.7 10 14 C8.68 13.67 7.36 13.34 6 13 C6.33 12.01 6.66 11.02 7 10 C6.34 10 5.68 10 5 10 C3.98133771 8.34467377 2.98189187 6.67739862 2 5 C1.34 4.67 0.68 4.34 0 4 C0 2.68 0 1.36 0 0 Z " fill="#D0A833" transform="translate(550,345)"/>
<path d="M0 0 C1.40318642 4.20955927 -0.11775477 6.09608396 -2 10 C-2.99 11.485 -2.99 11.485 -4 13 C-4.66 13 -5.32 13 -6 13 C-8 10 -8 10 -8 6 C-5.525 6.495 -5.525 6.495 -3 7 C-2.814375 6.1028125 -2.814375 6.1028125 -2.625 5.1875 C-2 3 -2 3 0 0 Z " fill="#D0A42E" transform="translate(570,394)"/>
<path d="M0 0 C0 3 0 3 -1.4609375 4.5 C-2.09257813 4.995 -2.72421875 5.49 -3.375 6 C-5.86340153 7.96614442 -7.1957287 9.29359306 -9 12 C-11.64 11.67 -14.28 11.34 -17 11 C-14.82136657 8.82136657 -12.96382775 7.93199687 -10.1875 6.625 C-6.38856077 4.77226119 -3.16321804 2.84689623 0 0 Z " fill="#C39C2E" transform="translate(557,399)"/>
<path d="M0 0 C0.33 0.66 0.66 1.32 1 2 C-0.5625 4.9375 -0.5625 4.9375 -3 8 C-6.75 8.875 -6.75 8.875 -10 9 C-10.33 8.34 -10.66 7.68 -11 7 C-10.34 6.67 -9.68 6.34 -9 6 C-9 5.34 -9 4.68 -9 4 C-7.68 4 -6.36 4 -5 4 C-5 3.34 -5 2.68 -5 2 C-4.360625 1.855625 -3.72125 1.71125 -3.0625 1.5625 C-1.02454854 1.18992819 -1.02454854 1.18992819 0 0 Z " fill="#E8B52E" transform="translate(425,396)"/>
<path d="M0 0 C2.31 0.33 4.62 0.66 7 1 C7 1.66 7 2.32 7 3 C5.10435574 3.79211929 3.20847629 4.58367576 1.3125 5.375 C0.25675781 5.81585938 -0.79898437 6.25671875 -1.88671875 6.7109375 C-4.58356657 7.82757462 -7.28716264 8.92291801 -10 10 C-9.67 8.68 -9.34 7.36 -9 6 C-8.236875 5.855625 -7.47375 5.71125 -6.6875 5.5625 C-3.91827092 5.0367406 -3.91827092 5.0367406 -1 4 C-0.26676204 1.98491642 -0.26676204 1.98491642 0 0 Z " fill="#CFA431" transform="translate(485,334)"/>
<path d="M0 0 C0.66 0.33 1.32 0.66 2 1 C0.49776416 5.20626034 -2.28550034 6.73900021 -6 9 C-6.33 8.34 -6.66 7.68 -7 7 C-8.32 7 -9.64 7 -11 7 C-8.84658594 4.65082102 -6.78332063 3.17556996 -3.9375 1.75 C-3.24527344 1.39421875 -2.55304688 1.0384375 -1.83984375 0.671875 C-1.23269531 0.45015625 -0.62554687 0.2284375 0 0 Z " fill="#D6AC32" transform="translate(478,329)"/>
<path d="M0 0 C2.3125 -0.1875 2.3125 -0.1875 5 0 C6.66796875 1.51171875 6.66796875 1.51171875 8 3 C6.21289414 3.86366822 4.4201535 4.71568594 2.625 5.5625 C1.62726562 6.03816406 0.62953125 6.51382812 -0.3984375 7.00390625 C-1.25695312 7.33261719 -2.11546875 7.66132813 -3 8 C-3.66 7.67 -4.32 7.34 -5 7 C-4.0409375 6.6596875 -4.0409375 6.6596875 -3.0625 6.3125 C-0.72806339 5.14749104 -0.72806339 5.14749104 -0.25 2.375 C-0.1675 1.59125 -0.085 0.8075 0 0 Z " fill="#C2992A" transform="translate(548,412)"/>
<path d="M0 0 C2.02408755 0.09002398 4.04544287 0.24641038 6.0625 0.4375 C7.71958984 0.59025391 7.71958984 0.59025391 9.41015625 0.74609375 C10.26480469 0.82988281 11.11945312 0.91367187 12 1 C9.37412094 3.62587906 7.22718377 3.85778351 3.625 4.6875 C1.91183594 5.09548828 1.91183594 5.09548828 0.1640625 5.51171875 C-2.72980868 5.95830381 -4.29816991 5.99155833 -7 5 C-3.86501708 3.14223235 -1.62528568 2.79859524 2 3 C1.01 2.34 0.02 1.68 -1 1 C-0.67 0.67 -0.34 0.34 0 0 Z " fill="#A38329" transform="translate(530,419)"/>
<path d="M0 0 C6.75 -0.125 6.75 -0.125 9 1 C9 1.99 9 2.98 9 4 C9.99 4.33 10.98 4.66 12 5 C12 5.66 12 6.32 12 7 C8.65626525 6.44271087 5.96687001 5.64826111 3 4 C3 3.34 3 2.68 3 2 C2.01 1.67 1.02 1.34 0 1 C0 0.67 0 0.34 0 0 Z " fill="#CEA32F" transform="translate(360,393)"/>
<path d="M0 0 C2.71166833 2.71166833 2.7261859 4.16660254 3 8 C2.5835967 11.39805654 2.05070976 14.73726968 1 18 C0.34 18.33 -0.32 18.66 -1 19 C-0.67 12.73 -0.34 6.46 0 0 Z " fill="#BE9930" transform="translate(416,356)"/>
<path d="M0 0 C1.32 0.99 2.64 1.98 4 3 C4.66 2.67 5.32 2.34 6 2 C8.625 3.1875 8.625 3.1875 11 5 C11 6.32 11 7.64 11 9 C10.34 9 9.68 9 9 9 C9 7.68 9 6.36 9 5 C8.34 5 7.68 5 7 5 C7 5.99 7 6.98 7 8 C6.34 8 5.68 8 5 8 C5 7.01 5 6.02 5 5 C4.01 5 3.02 5 2 5 C2 4.34 2 3.68 2 3 C1.34 3 0.68 3 0 3 C0 2.01 0 1.02 0 0 Z " fill="#E4B232" transform="translate(394,406)"/>
<path d="M0 0 C3.05814457 1.45559284 5.86293657 3.13252004 8.6875 5 C9.47511719 5.515625 10.26273437 6.03125 11.07421875 6.5625 C13 8 13 8 14 10 C8.25 8.125 8.25 8.125 6 7 C5.67 7.66 5.34 8.32 5 9 C1.125 2.25 1.125 2.25 0 0 Z " fill="#CBA12F" transform="translate(383,395)"/>
<path d="M0 0 C0.99 0.66 1.98 1.32 3 2 C3 2.66 3 3.32 3 4 C4.32 4.33 5.64 4.66 7 5 C6.01 6.32 5.02 7.64 4 9 C4 8.34 4 7.68 4 7 C3.13375 6.7834375 3.13375 6.7834375 2.25 6.5625 C0.16666667 6.04166667 -1.91666667 5.52083333 -4 5 C-3.67 4.34 -3.34 3.68 -3 3 C-2.01 3 -1.02 3 0 3 C0 2.01 0 1.02 0 0 Z " fill="#EAB832" transform="translate(358,379)"/>
<path d="M0 0 C2.97 1.98 5.94 3.96 9 6 C8.67 6.66 8.34 7.32 8 8 C4.7 7.01 1.4 6.02 -2 5 C-1.34 3.35 -0.68 1.7 0 0 Z " fill="#29210D" transform="translate(384,410)"/>
<path d="M0 0 C0.99 0.33 1.98 0.66 3 1 C1 3 1 3 -2.3125 4.8125 C-5.83885961 6.76749016 -8.28308607 9.0360939 -11 12 C-11 9 -11 9 -9.35546875 7.24609375 C-8.64003906 6.64925781 -7.92460938 6.05242187 -7.1875 5.4375 C-6.47980469 4.83808594 -5.77210937 4.23867188 -5.04296875 3.62109375 C-3 2 -3 2 0 0 Z " fill="#0F0D09" transform="translate(88,330)"/>
<path d="M0 0 C0.66 0 1.32 0 2 0 C0.32598022 3.95677402 -2.13149285 6.84464213 -5 10 C-5.66 10 -6.32 10 -7 10 C-7 9.34 -7 8.68 -7 8 C-6.34 8 -5.68 8 -5 8 C-5.33 7.01 -5.66 6.02 -6 5 C-5.34 4.01 -4.68 3.02 -4 2 C-2.68 2 -1.36 2 0 2 C0 1.34 0 0.68 0 0 Z " fill="#D0A732" transform="translate(355,326)"/>
<path d="M0 0 C4.51359758 3.5463981 6.46602606 8.59815311 8 14 C7.67 14.66 7.34 15.32 7 16 C4.70620251 12.55930376 4 11.27709699 4 7 C3.34 7 2.68 7 2 7 C0.5393715 4.35261084 0 3.10551666 0 0 Z " fill="#C19C32" transform="translate(416,299)"/>
<path d="M0 0 C-0.99 1.485 -0.99 1.485 -2 3 C-5.2578125 3.29296875 -5.2578125 3.29296875 -9.125 3.1875 C-11.04699219 3.14689453 -11.04699219 3.14689453 -13.0078125 3.10546875 C-13.99523437 3.07066406 -14.98265625 3.03585937 -16 3 C-12.16061076 -0.83938924 -5.1929061 -0.12982265 0 0 Z " fill="#DFB034" transform="translate(496,326)"/>
<path d="M0 0 C0.33 0.99 0.66 1.98 1 3 C-0.95305232 6.06908222 -3.43737385 8.43737385 -6 11 C-7.98821313 11.39764263 -9.98944339 11.73775349 -12 12 C-9.00576746 8.88599816 -5.81332279 6.11550878 -2.48828125 3.3671875 C-0.87617982 2.04914224 -0.87617982 2.04914224 0 0 Z " fill="#110F0A" transform="translate(247,136)"/>
<path d="M0 0 C0.89332031 0.12761719 1.78664063 0.25523437 2.70703125 0.38671875 C3.60808594 0.50660156 4.50914062 0.62648438 5.4375 0.75 C6.12457031 0.85699219 6.81164062 0.96398437 7.51953125 1.07421875 C4.20582125 3.28335875 3.17492915 3.29903428 -0.66796875 3.19921875 C-1.56902344 3.18117188 -2.47007812 3.163125 -3.3984375 3.14453125 C-4.08550781 3.12132812 -4.77257812 3.098125 -5.48046875 3.07421875 C-3.68981165 0.76004728 -2.99175075 0.08951695 0 0 Z " fill="#D7AA32" transform="translate(518.48046875,421.92578125)"/>
<path d="M0 0 C0 0.66 0 1.32 0 2 C-1.65002828 3.35386936 -3.3174387 4.68678142 -5 6 C-5.33 6.66 -5.66 7.32 -6 8 C-6.99 8 -7.98 8 -9 8 C-9.33 8.99 -9.66 9.98 -10 11 C-10.99 10.67 -11.98 10.34 -13 10 C-12.01 9.67 -11.02 9.34 -10 9 C-9.67 8.01 -9.34 7.02 -9 6 C-8.34 6 -7.68 6 -7 6 C-6.67 5.01 -6.34 4.02 -6 3 C-2.55555556 0 -2.55555556 0 0 0 Z " fill="#121009" transform="translate(106,348)"/>
<path d="M0 0 C1.32 0 2.64 0 4 0 C4 0.66 4 1.32 4 2 C4.99 2 5.98 2 7 2 C9.75 4.8125 9.75 4.8125 12 8 C11.67 8.99 11.34 9.98 11 11 C9.29115995 9.37660195 7.62553283 7.70680947 6 6 C6 5.34 6 4.68 6 4 C5.38125 3.71125 4.7625 3.4225 4.125 3.125 C2 2 2 2 0 0 Z " fill="#C29D32" transform="translate(527,340)"/>
<path d="M0 0 C0 0.66 0 1.32 0 2 C-0.99 2.495 -0.99 2.495 -2 3 C-2.33 3.99 -2.66 4.98 -3 6 C-4.8125 7.25 -4.8125 7.25 -7 8 C-9.13671875 7.546875 -9.13671875 7.546875 -11 7 C-9.54634731 5.82750647 -8.08692581 4.66216184 -6.625 3.5 C-5.40683594 2.52546875 -5.40683594 2.52546875 -4.1640625 1.53125 C-2 0 -2 0 0 0 Z " fill="#C6A031" transform="translate(368,303)"/>
<path d="M0 0 C3.29907353 3.29907353 4.89128726 7.29683373 5.1875 11.9375 C5.125625 12.618125 5.06375 13.29875 5 14 C2.37613513 10.93882432 2 10.26826873 2 6 C1.34 6 0.68 6 0 6 C0 4.02 0 2.04 0 0 Z " fill="#C8A132" transform="translate(565,367)"/>
<path d="M0 0 C0.33 0.66 0.66 1.32 1 2 C0.01 2.33 -0.98 2.66 -2 3 C-2.73323796 5.01508358 -2.73323796 5.01508358 -3 7 C-3.598125 6.649375 -4.19625 6.29875 -4.8125 5.9375 C-7.10813214 4.66695302 -7.10813214 4.66695302 -10 6 C-10 5.34 -10 4.68 -10 4 C-6.7 2.68 -3.4 1.36 0 0 Z " fill="#C59D30" transform="translate(386,293)"/>
<path d="M0 0 C0 0.66 0 1.32 0 2 C-0.99 2.495 -0.99 2.495 -2 3 C-2.33 3.99 -2.66 4.98 -3 6 C-5.0625 6.6875 -5.0625 6.6875 -7 7 C-7 7.66 -7 8.32 -7 9 C-7.66 9 -8.32 9 -9 9 C-8.82701599 6.66471585 -8.29774631 5.30822418 -6.66796875 3.62109375 C-2.42788462 0 -2.42788462 0 0 0 Z " fill="#110F09" transform="translate(175,28)"/>
<path d="M0 0 C0.78890625 0.22042969 1.5778125 0.44085938 2.390625 0.66796875 C3.18984375 0.88066406 3.9890625 1.09335937 4.8125 1.3125 C5.71742188 1.58126953 5.71742188 1.58126953 6.640625 1.85546875 C6.310625 2.51546875 5.980625 3.17546875 5.640625 3.85546875 C1.680625 3.52546875 -2.279375 3.19546875 -6.359375 2.85546875 C-2.359375 -0.14453125 -2.359375 -0.14453125 0 0 Z " fill="#17140B" transform="translate(439.359375,474.14453125)"/>
<path d="M0 0 C2.875 0.6875 2.875 0.6875 6 2 C7.3125 4.5 7.3125 4.5 8 7 C8.33 7.66 8.66 8.32 9 9 C4.71930097 7.41455592 2.70478088 4.5312417 0 1 C0 0.67 0 0.34 0 0 Z " fill="#E4B537" transform="translate(345,378)"/>
<path d="M0 0 C1.125 3.75 1.125 3.75 0 6 C-0.66 6 -1.32 6 -2 6 C-2.28875 6.969375 -2.5775 7.93875 -2.875 8.9375 C-4 12 -4 12 -6 13 C-4.58707905 8.1725201 -2.57025846 4.2837641 0 0 Z " fill="#B3912E" transform="translate(339,330)"/>
<path d="M0 0 C2.97 0 5.94 0 9 0 C6.3144406 2.6855594 3.62378672 3.06049974 0 4 C0 2.68 0 1.36 0 0 Z " fill="#DFB234" transform="translate(438,418)"/>
<path d="M0 0 C0.33 0.99 0.66 1.98 1 3 C0.34 3 -0.32 3 -1 3 C-1 3.66 -1 4.32 -1 5 C-1.99 5 -2.98 5 -4 5 C-4 4.01 -4 3.02 -4 2 C-5.32 1.67 -6.64 1.34 -8 1 C-5.29120665 -0.35439668 -2.99066732 -0.06501451 0 0 Z " fill="#E5B533" transform="translate(496,331)"/>
<path d="M0 0 C0.90105469 0.01804687 1.80210937 0.03609375 2.73046875 0.0546875 C3.41753906 0.07789063 4.10460937 0.10109375 4.8125 0.125 C4.8125 0.455 4.8125 0.785 4.8125 1.125 C2.8325 1.125 0.8525 1.125 -1.1875 1.125 C-1.1875 1.785 -1.1875 2.445 -1.1875 3.125 C-3.4975 2.795 -5.8075 2.465 -8.1875 2.125 C-4.87379 -0.08414 -3.8428979 -0.09981553 0 0 Z " fill="#D4AA35" transform="translate(514.1875,415.875)"/>
<path d="M0 0 C0 3 0 3 -1.53125 4.60546875 C-2.1809375 5.12753906 -2.830625 5.64960938 -3.5 6.1875 C-4.1496875 6.71730469 -4.799375 7.24710937 -5.46875 7.79296875 C-5.9740625 8.19128906 -6.479375 8.58960938 -7 9 C-7.99 8.34 -8.98 7.68 -10 7 C-9.36191406 6.57847656 -8.72382812 6.15695312 -8.06640625 5.72265625 C-7.24011719 5.17480469 -6.41382813 4.62695312 -5.5625 4.0625 C-4.73878906 3.51722656 -3.91507813 2.97195313 -3.06640625 2.41015625 C-1.10014075 1.16197019 -1.10014075 1.16197019 0 0 Z " fill="#B8942D" transform="translate(557,399)"/>
<path d="M0 0 C0.33 0.66 0.66 1.32 1 2 C0.2884375 2.928125 0.2884375 2.928125 -0.4375 3.875 C-2.02417441 5.90705546 -2.02417441 5.90705546 -3 8 C-5.0625 8.625 -5.0625 8.625 -7 9 C-5.44499019 5.18315774 -2.96404505 2.80804268 0 0 Z " fill="#18140A" transform="translate(268,107)"/>
<path d="M0 0 C0.33 0.66 0.66 1.32 1 2 C-0.98 4.97 -0.98 4.97 -3 8 C-5 4.25 -5 4.25 -5 2 C-4.360625 1.855625 -3.72125 1.71125 -3.0625 1.5625 C-1.02454854 1.18992819 -1.02454854 1.18992819 0 0 Z " fill="#BA942E" transform="translate(425,396)"/>
<path d="M0 0 C0 3.69418201 -1.28179295 5.77836178 -3 9 C-3.33 9 -3.66 9 -4 9 C-4.33 7.02 -4.66 5.04 -5 3 C-3.35 2.01 -1.7 1.02 0 0 Z " fill="#BF9A2F" transform="translate(431,386)"/>
<path d="M0 0 C1.32 0 2.64 0 4 0 C3.67 0.99 3.34 1.98 3 3 C2.34 3 1.68 3 1 3 C0.67 3.99 0.34 4.98 0 6 C-0.66 6 -1.32 6 -2 6 C-1.125 1.125 -1.125 1.125 0 0 Z " fill="#C9A12F" transform="translate(359,320)"/>
<path d="M0 0 C0.99 0.33 1.98 0.66 3 1 C1.71283353 2.00578589 0.42011342 3.00446798 -0.875 4 C-1.95394531 4.8353125 -1.95394531 4.8353125 -3.0546875 5.6875 C-5 7 -5 7 -7 7 C-7 6.34 -7 5.68 -7 5 C-5.57421875 3.67578125 -5.57421875 3.67578125 -3.6875 2.3125 C-3.07261719 1.85488281 -2.45773437 1.39726562 -1.82421875 0.92578125 C-1.22222656 0.62027344 -0.62023437 0.31476563 0 0 Z " fill="#BC9830" transform="translate(376,308)"/>
<path d="M0 0 C1.2065625 0.0309375 1.2065625 0.0309375 2.4375 0.0625 C-2.3125 4.9375 -2.3125 4.9375 -4.5625 6.0625 C-3.48963568 0.08511307 -3.48963568 0.08511307 0 0 Z " fill="#CDA534" transform="translate(433.5625,419.9375)"/>
<path d="M0 0 C0.33 0 0.66 0 1 0 C1.10251672 5.12583611 1.03590199 9.94997778 0 15 C-0.33 15 -0.66 15 -1 15 C-1.38063221 12.6739143 -1.71269945 10.33944736 -2 8 C-1.67 7.67 -1.34 7.34 -1 7 C-0.63239269 4.67182036 -0.29758419 2.3381615 0 0 Z " fill="#1D190E" transform="translate(74,209)"/>
<path d="M0 0 C1.98 0.66 3.96 1.32 6 2 C5.34 3.32 4.68 4.64 4 6 C3.34 6 2.68 6 2 6 C0 3 0 3 0 0 Z " fill="#C49B2D" transform="translate(562,401)"/>
<path d="M0 0 C3.11198065 1.49836105 6.0534615 3.19933758 9 5 C7 6 7 6 4.5 5.3125 C1.70348499 3.84432962 1.06588569 2.90696099 0 0 Z " fill="#B3902B" transform="translate(383,395)"/>
<path d="M0 0 C1.32 0 2.64 0 4 0 C4.66 2.31 5.32 4.62 6 7 C5.01 7.495 5.01 7.495 4 8 C2.68 5.36 1.36 2.72 0 0 Z " fill="#917526" transform="translate(341,375)"/>
<path d="M0 0 C2.79872437 2.52788007 4.45773019 4.20411134 5 8 C3.68 7.67 2.36 7.34 1 7 C0.67 4.69 0.34 2.38 0 0 Z " fill="#C19B2F" transform="translate(559,357)"/>
<path d="M0 0 C1.99097846 2.98646769 2.94124926 5.59687262 4 9 C2.35 8.01 0.7 7.02 -1 6 C-0.67 4.02 -0.34 2.04 0 0 Z " fill="#AF8D2A" transform="translate(343,356)"/>
<path d="M0 0 C1.98 0.66 3.96 1.32 6 2 C6.33 3.65 6.66 5.3 7 7 C5.83040013 6.02433888 4.66438823 5.044375 3.5 4.0625 C2.8503125 3.51722656 2.200625 2.97195313 1.53125 2.41015625 C1.0259375 1.94480469 0.520625 1.47945313 0 1 C0 0.67 0 0.34 0 0 Z " fill="#D9AD35" transform="translate(402,302)"/>
</svg>
