<svg width="600" height="599" viewBox="0 0 600 599" fill="none" xmlns="http://www.w3.org/2000/svg">
<g clip-path="url(#clip0_21_2)">
<path d="M309 24.9999C309 25.6599 309 26.3199 309 26.9999C309.85 27.3905 309.85 27.3905 310.718 27.789C323.875 34.773 335.093 48.3485 344 59.9999C344.753 60.9793 344.753 60.9793 345.522 61.9784C352.585 71.2123 359.258 80.6688 365.562 90.4374C366.133 91.3118 366.705 92.1862 367.293 93.0871C377.099 108.539 381.548 124.968 377.808 143.125C374.499 154.89 367.611 165.249 359.863 174.57C355.549 180.196 353.607 187.013 353 194C350.5 194.875 350.5 194.875 347 195C342.214 192.476 338.112 189.045 336 184C333.24 174.861 333.88 166.468 335.437 157.187C335.639 155.92 335.639 155.92 335.845 154.627C336.388 151.295 336.929 148.21 338 145C338.793 136.149 339.133 128.597 333.8 121.062C331.102 117.972 328.267 115.483 325 113C325.132 113.764 325.265 114.529 325.402 115.316C327.748 129.547 328.207 143.738 328.187 158.125C328.187 159.271 328.187 159.271 328.186 160.44C328.166 172.729 327.644 184.809 326 197C325.892 197.845 325.785 198.691 325.675 199.562C323.278 218.296 319.88 237.721 308 253C307.523 253.615 307.046 254.23 306.554 254.863C300.58 261.633 289.497 267.614 280.437 268.25C270.751 268.073 262.373 263.446 254 259C255.668 273.608 261.913 283.489 273 293C275.136 294.608 277.315 296.143 279.5 297.687C284.634 301.392 286.717 303.798 288 310C288 310.99 288 311.98 288 313C280.355 311.399 272.673 306.271 267 301C267 300.34 267 299.68 267 299C266.01 298.67 265.02 298.34 264 298C264 297.34 264 296.68 264 296C263.01 295.67 262.02 295.34 261 295C261 294.34 261 293.68 261 293C260.34 293 259.68 293 259 293C257.307 290.826 255.765 288.669 254.25 286.375C253.581 285.366 253.581 285.366 252.898 284.336C246.38 274.228 241.844 264.008 241.875 251.812C241.872 250.788 241.869 249.763 241.867 248.707C242 246 242 246 243 243C248.913 242.31 251.758 244.42 256.312 247.75C257.646 248.673 258.984 249.593 260.324 250.508C260.961 250.944 261.598 251.38 262.255 251.829C269.726 256.843 277.001 258.605 286 257C297.902 251.588 303.357 240.581 308 229C309.475 224.702 310.775 220.375 312 216C312.472 214.447 312.472 214.447 312.953 212.863C317.453 197.033 317.525 180.508 317.437 164.187C317.436 163.079 317.434 161.972 317.433 160.83C319.073 132.132 319.073 132.132 312 106C300.332 103.812 290.858 105.009 280.589 111.074C273.945 116.015 269.186 122.182 264.5 128.937C247.334 153.558 226.485 164.419 199.109 175.123C191.582 178.252 188.21 183.177 184.929 190.336C180.806 202.151 181.635 215.02 183.074 227.215C183 230 183 230 181.687 231.898C180 233 180 233 177.312 232.687C176.167 232.347 176.167 232.347 175 232C173.228 226.328 173.736 220.2 173.704 214.313C173.693 212.829 173.673 211.344 173.643 209.86C173.356 195.555 175.919 183.121 184 171C184.66 171 185.32 171 186 171C186.33 170.01 186.66 169.02 187 168C187.66 168 188.32 168 189 168C189 167.34 189 166.68 189 166C197.311 161.261 205.499 158.079 214.687 155.437C232.818 150.165 244.198 142.409 254 126C254.821 124.463 255.635 122.922 256.437 121.375C260.152 114.487 265.362 107.461 273 105C273 104.34 273 103.68 273 103C282.098 98.2025 289.689 95.4985 300.062 95.8124C300.928 95.8259 301.793 95.8395 302.685 95.8534C304.79 95.8883 306.895 95.9421 309 95.9999C304.434 81.2295 294.223 66.6585 280.675 58.621C267.483 52.0137 255.056 50.898 240.517 50.3944C239.564 50.357 238.611 50.3197 237.629 50.2811C236.763 50.2509 235.897 50.2206 235.006 50.1893C233 49.9999 233 49.9999 232 48.9999C232.287 46.6604 232.619 44.326 233 41.9999C238.957 39.844 243.808 39.9418 250.062 40.6249C251.453 40.7704 251.453 40.7704 252.872 40.9188C274.969 43.4564 293.283 53.314 308 69.9999C313.885 77.6784 321 89.1072 321 98.9999C321.724 99.103 322.449 99.2061 323.195 99.3124C331.837 101.431 338.386 108.745 343 116C344.24 118.325 345.103 120.499 346 123C346.518 124.278 346.518 124.278 347.046 125.582C348.307 130.103 348.423 134.324 348.437 139C348.442 139.955 348.446 140.909 348.451 141.893C348.326 150.125 346.85 157.751 344.691 165.678C343.288 170.925 342.79 174.675 344 180C346.259 177.914 347.67 175.982 349.062 173.25C351.452 168.79 354.212 164.671 357.062 160.5C360.654 155.2 363.843 150.067 366 144C366.412 142.927 366.825 141.855 367.25 140.75C370.347 125.263 365.509 111.435 358 97.9999C357.646 97.3618 357.293 96.7237 356.929 96.0663C348.218 80.4402 337.865 66.3688 326 52.9999C325.382 52.2974 324.765 51.5948 324.129 50.871C314.353 40.4423 301.646 31.5302 289 24.9999C288.035 24.492 287.071 23.9841 286.078 23.4608C279.461 20.1859 272.741 17.8306 265.687 15.6874C264.851 15.4327 264.015 15.1781 263.154 14.9157C255.28 12.6177 247.689 11.8199 239.5 11.8124C238.792 11.8001 238.084 11.7879 237.355 11.7753C219.707 11.7269 202.37 21.8786 187.75 30.9374C186.743 31.56 186.743 31.56 185.715 32.1952C182.606 34.1678 179.703 36.1736 176.961 38.6366C169.349 45.3148 164.01 45.812 154.312 45.2733C153.57 45.224 152.827 45.1747 152.062 45.1239C131.651 43.8966 105.702 55.4207 89.9996 67.9999C75.8481 82.2123 75.0907 104.087 74.9176 122.914C74.9362 130.295 75.3892 137.63 75.8552 144.993C80.5252 220.012 80.5252 220.012 66.1759 242.162C63.7074 246.019 61.3614 249.952 58.9996 253.875C58.4796 254.739 57.9597 255.602 57.4239 256.492C45.3405 276.711 37.3256 298.768 43.1793 322.637C48.4149 337.72 56.6255 345.823 70.6871 352.937C71.4502 353.288 72.2134 353.639 72.9996 354C72.8965 352.845 72.7934 351.69 72.6871 350.5C72.7082 344.526 75.5822 340.607 79.5387 336.34C85.4349 330.877 92.6782 327.842 100.125 325.062C105.253 323.077 111.441 320.118 114 315C114.66 315 115.32 315 116 315C116.288 314.417 116.577 313.835 116.875 313.234C120.231 306.568 124.057 300.206 128 293.875C128.415 293.206 128.83 292.537 129.257 291.849C133.319 285.37 137.423 279.297 143 274C143.886 273.072 144.773 272.144 145.687 271.187C148 269 148 269 150 269C150 268.34 150 267.68 150 267C157.761 262.175 164.739 258.565 174 260.687C176.485 262.318 176.985 263.202 178 266C178.066 268.614 178.039 271.144 177.937 273.75C177.708 286.066 179.667 297.803 185 309C185.393 309.864 185.786 310.727 186.191 311.617C188.614 316.736 191.281 320.751 195 325C195 325.66 195 326.32 195 327C195.618 327.309 196.237 327.619 196.875 327.937C198.25 328.625 199.625 329.312 201 330C201 330.66 201 331.32 201 332C201.712 332.271 202.425 332.541 203.16 332.82C206.031 334.013 208.697 335.408 211.437 336.875C220.945 341.641 232.202 346.006 243 344C247.442 342.095 250.314 340.028 253 336C253.66 336 254.32 336 255 336C255.154 334.979 255.154 334.979 255.312 333.937C256.147 330.371 257.494 327.338 259 324C260.886 324.266 260.886 324.266 263 325C265.106 328.255 266.054 331.838 265.875 335.687C263.221 342.699 258.563 347.466 252 351C251.16 351.512 251.16 351.512 250.304 352.035C237.34 357.463 218.687 353.315 206.289 348.543C189.534 340.683 179.076 326.346 172.289 309.578C167.651 296.706 167.622 284.518 168 271C159.226 272.255 153.598 276.335 148 283C144.868 287.25 141.926 291.607 139 296C138.429 296.821 137.858 297.642 137.269 298.488C134.682 302.233 132.471 305.957 130.5 310.062C125.362 320.466 118.705 325.841 109 332C108.151 332.543 107.303 333.085 106.429 333.644C103.892 335.06 101.446 335.973 98.6871 336.875C92.4848 339.062 86.7256 341.411 82.9996 347C82.72 348.98 82.72 348.98 82.8121 351.125C82.8276 351.911 82.8431 352.698 82.859 353.508C83.0436 356.779 83.4224 360.006 83.8785 363.25C83.9385 364.116 83.9385 364.116 83.9996 365C82.9996 366 82.9996 366 81.0309 366.019C68.0546 364.958 55.0031 357.757 46.2926 348.109C35.7772 335.372 29.7727 318.608 30.9996 302C33.3971 282.434 40.4671 266.112 49.9996 249C50.4687 248.154 50.9377 247.309 51.421 246.437C52.6122 244.291 53.8051 242.145 54.9996 240C55.6596 240 56.3196 240 56.9996 240C57.1143 239.43 57.2291 238.86 57.3473 238.273C58.2863 235.001 60.0201 232.329 61.7457 229.414C67.8485 217.665 66.1343 202.585 66.0748 189.677C66.0618 186.817 66.0554 183.956 66.0506 181.095C66.0374 173.983 66.0134 166.871 65.9892 159.758C65.8469 117.081 65.8469 117.081 66.3121 101.324C66.3458 99.7944 66.3458 99.7944 66.3802 98.2337C66.8948 84.546 71.7513 71.8976 81.0934 61.7108C101.872 43.0616 130.529 35.8404 157.816 35.0343C164.875 34.6676 168.136 33.0238 173 27.9999C214.438 -2.81133 267.013 -5.74255 309 24.9999Z" fill="white"/>
<path d="M413 295C421.898 302.242 425.295 313.433 426.57 324.465C427.175 331.013 427.149 337.554 427.125 344.125C427.123 345.401 427.121 346.677 427.119 347.991C427.078 357.029 426.794 365.996 426 375C430.185 370.947 433.702 366.633 437.23 362.012C437.814 361.348 438.398 360.684 439 360C439.66 360 440.32 360 441 360C441.217 359.459 441.433 358.917 441.656 358.359C443.465 355.184 445.917 352.793 448.5 350.25C448.999 349.743 449.498 349.237 450.012 348.715C453.747 345 453.747 345 456 345C456.33 344.01 456.66 343.02 457 342C474.117 328.068 493.01 321.84 515 323C525.501 324.313 534.034 330.46 542 337C542.745 337.523 543.49 338.047 544.258 338.586C544.833 339.053 545.408 339.519 546 340C546 340.66 546 341.32 546 342C546.99 342.33 547.98 342.66 549 343C549 343.66 549 344.32 549 345C549.99 345.33 550.98 345.66 552 346C553.347 347.468 553.347 347.468 554.707 349.359C555.209 350.057 555.71 350.754 556.227 351.472C556.75 352.224 557.273 352.976 557.812 353.75C558.349 354.519 558.885 355.287 559.437 356.079C567.467 367.834 573.432 380.126 571.484 394.707C570.507 399.334 568.627 403.06 566 407C565.34 407 564.68 407 564 407C563.67 407.99 563.34 408.98 563 410C528.564 437.265 468.824 428.151 428 428C428.797 422.219 428.797 422.219 430.625 420.25C444.551 412.92 464.137 415.939 479.291 416.096C518.911 416.646 518.911 416.646 554.75 401.438C558.51 397.364 559.492 393.863 559.305 388.285C557.348 373.61 546.449 359.121 536.062 349.063C534 347 534 347 533 344C531.285 342.974 531.285 342.974 529 342C527.866 341.34 526.731 340.68 525.562 340C515.859 334.458 505.466 333.83 494.676 336.27C483.128 339.422 474.28 345.67 464.824 352.751C463 354 463 354 460.832 354.978C458.65 355.925 458.65 355.925 458 359C456.293 360.649 456.293 360.649 454.188 362.375C451.04 365.027 448.551 367.762 446 371C445.34 371 444.68 371 444 371C443.732 371.578 443.464 372.155 443.188 372.75C441.982 375.034 440.569 376.954 439 379C439.877 379.208 440.753 379.415 441.656 379.629C452.977 382.379 464.132 385.605 475.301 388.913C478.758 389.929 482.219 390.931 485.682 391.929C488.806 392.829 491.929 393.734 495.052 394.64C496.597 395.087 498.143 395.532 499.689 395.975C501.865 396.598 504.038 397.23 506.211 397.863C507.472 398.227 508.733 398.591 510.033 398.966C513 400 513 400 515 402C495.788 408.404 464.346 396.56 445.617 391.035C441.109 389.745 436.615 388.819 432 388C431.708 388.485 431.415 388.969 431.114 389.469C429.792 391.651 428.459 393.825 427.125 396C426.665 396.763 426.205 397.526 425.73 398.313C425.286 399.034 424.841 399.756 424.383 400.5C423.974 401.17 423.566 401.841 423.145 402.531C422.767 403.016 422.389 403.501 422 404C421.34 404 420.68 404 420 404C420 404.66 420 405.32 420 406C416.625 406.625 416.625 406.625 413 407C411 405 411 405 410.734 402.313C410.74 401.219 410.745 400.126 410.75 399C410.742 397.391 410.742 397.391 410.734 395.75C411.067 391.06 411.988 386.585 413 382C409 380.73 404.998 379.466 400.994 378.21C399.635 377.782 398.276 377.352 396.918 376.921C394.956 376.297 392.992 375.681 391.027 375.066C389.26 374.509 389.26 374.509 387.457 373.94C380.476 371.866 380.476 371.866 373.762 373.652C372.747 374.407 371.733 375.161 370.688 375.938C365.134 380 365.134 380 363 380C363 380.66 363 381.32 363 382C363.733 382.267 364.467 382.534 365.223 382.809C367.959 383.983 370.042 385.307 372.438 387.063C375.96 389.593 379.524 391.994 383.194 394.301C401.577 405.866 401.577 405.866 407 414C407.562 416.688 407.562 416.688 407 419C405.312 420.875 405.312 420.875 403 422C399.644 421.907 397.237 420.626 394.344 419.074C390.223 416.998 386.236 415.873 381.75 414.875C371.487 412.453 361.341 409.65 351.188 406.813C350.391 406.59 349.595 406.368 348.774 406.139C341.51 404.113 334.25 402.077 327 400C326.508 396.84 326.508 396.84 327 393C329.294 390.632 332.007 389.154 334.875 387.563C335.621 387.117 336.368 386.672 337.137 386.213C342.615 383 342.615 383 345 383C342.979 379.332 340.947 375.854 338.438 372.5C332.375 364.181 331.149 355.1 332 345C333.947 335.994 340.22 327.988 346 321C346.66 321 347.32 321 348 321C348.227 320.443 348.454 319.886 348.688 319.313C350.376 316.338 352.467 314.28 355 312C355.66 312 356.32 312 357 312C357.33 311.01 357.66 310.02 358 309C371.444 297.017 395.814 282.793 413 295ZM360.75 322.625C360.173 323.409 359.595 324.193 359 325C358.236 325.752 357.471 326.503 356.684 327.277C353.973 330.027 351.644 332.862 349.312 335.938C348.546 336.937 347.779 337.936 346.988 338.965C343.497 344.294 342.082 349.653 343 356C345.032 362.84 349.075 368.88 354 374C356.856 375.331 356.856 375.331 358.929 374.12C359.642 373.66 360.355 373.2 361.09 372.727C361.874 372.232 362.659 371.737 363.467 371.227C364.282 370.698 365.097 370.17 365.938 369.625C367.548 368.592 369.161 367.563 370.777 366.539C371.491 366.077 372.205 365.615 372.941 365.139C377.48 362.628 380.236 363.066 385.234 364.363C386.449 364.673 387.663 364.983 388.914 365.303C390.18 365.636 391.446 365.969 392.75 366.313C394 366.634 395.251 366.956 396.539 367.287C398.953 367.909 401.367 368.534 403.779 369.163C407.514 370.134 411.255 371.073 415 372C418.025 350.959 419.217 327.554 408 308.625C407.34 307.759 406.68 306.893 406 306C405.464 305.216 404.928 304.433 404.375 303.625C391.536 294.841 368.712 313.336 360.75 322.625ZM346.375 391C345.149 391.835 345.149 391.835 343.898 392.688C343.272 393.121 342.645 393.554 342 394C345.045 395.696 347.777 396.473 351.203 397.07C352.183 397.244 353.163 397.418 354.172 397.598C355.188 397.772 356.203 397.946 357.25 398.125C358.797 398.398 358.797 398.398 360.375 398.676C362.916 399.123 365.457 399.564 368 400C366.625 398.458 366.625 398.458 365 397C364.34 397 363.68 397 363 397C363 396.34 363 395.68 363 395C360.825 393.179 360.825 393.179 358.125 391.375C356.768 390.428 356.768 390.428 355.383 389.461C351.349 386.988 350.034 388.491 346.375 391Z" fill="#E4B22D"/>
<path d="M557 424C557.124 430.746 556.677 437.242 555.875 443.938C555.743 445.052 555.611 446.166 555.475 447.315C551.35 481.245 545.939 515.025 540.608 548.781C539.605 555.137 538.615 561.494 537.645 567.855C537.124 571.259 536.589 574.662 536.05 578.063C535.811 579.586 535.578 581.109 535.351 582.633C535.045 584.682 534.718 586.728 534.387 588.774C534.214 589.892 534.04 591.01 533.862 592.162C532.855 595.479 531.735 596.9 529 599C525.547 599.391 525.547 599.391 521.75 599.25C520.487 599.214 519.223 599.178 517.922 599.141C516.958 599.094 515.993 599.048 515 599C516.616 596.959 518.286 594.959 520 593C520.66 593 521.32 593 522 593C524.819 575.991 527.477 558.971 529.875 541.897C531.365 531.299 532.967 520.726 534.692 510.163C535.727 503.798 536.626 497.436 537.441 491.039C538.306 484.556 539.411 478.107 540.462 471.652C541.77 463.574 542.96 455.484 544.049 447.373C544.895 441.211 544.895 441.211 546 439C545.224 439.364 544.448 439.727 543.648 440.102C536.543 443.408 529.4 446.553 522.184 449.609C519.487 450.787 516.866 452.032 514.25 453.375C511 455 511 455 509 455C509.027 456.167 509.054 457.333 509.082 458.535C509.078 465.532 508.335 472.478 507.688 479.438C507.55 480.953 507.412 482.469 507.275 483.985C506.991 487.121 506.706 490.256 506.419 493.391C506.028 497.675 505.648 501.961 505.273 506.246C505.215 506.915 505.156 507.583 505.096 508.272C504.978 509.626 504.859 510.98 504.741 512.333C503.838 522.654 502.914 532.973 501.957 543.289C501.776 545.251 501.595 547.213 501.414 549.174C501.065 552.95 500.713 556.726 500.358 560.502C499.5 569.739 498.753 578.96 498.348 588.23C498.173 591.971 497.74 595.298 497 599C493.37 599 489.74 599 486 599C485.775 590.784 486.151 583.005 487.438 574.891C488.073 570.496 488.485 566.109 488.875 561.688C489.652 553.057 490.667 544.472 491.75 535.875C493.858 519.092 495.553 502.266 497.25 485.438C497.318 484.759 497.387 484.08 497.457 483.381C498.31 474.921 499.158 466.461 500 458C498.239 458.798 496.479 459.597 494.718 460.396C493.738 460.841 492.757 461.286 491.747 461.744C482.272 466.033 482.272 466.033 473.375 471.375C471 473 471 473 469 473C454.912 511.91 456.025 558.173 453 599C450.03 599 447.06 599 444 599C444.604 587.102 445.554 575.258 446.671 563.398C447.127 558.545 447.574 553.691 448.02 548.836C448.107 547.888 448.194 546.94 448.283 545.963C448.96 538.542 449.571 531.119 450.125 523.688C450.201 522.688 450.277 521.688 450.356 520.658C450.653 516.739 450.945 512.82 451.209 508.898C452.443 490.623 454.128 475.82 468.469 462.75C479.9 453.935 492.626 448.989 506.25 444.688C517.617 441.094 527.538 436.391 537.747 430.295C551.611 422.328 551.611 422.328 557 424Z" fill="white"/>
<path d="M374 298C375.082 301.365 374.925 302.298 374 306C377.3 305.67 380.6 305.34 384 305C380.557 308.443 376.755 310.985 372.738 313.684C370.41 315.266 368.213 316.787 366.219 318.781C365.817 319.183 365.414 319.586 365 320C364.34 320 363.68 320 363 320C362.505 321.485 362.505 321.485 362 323C361.34 323 360.68 323 360 323C359.505 324.485 359.505 324.485 359 326C358.34 326 357.68 326 357 326C356.763 326.539 356.526 327.078 356.281 327.633C354.056 331.745 350.981 335.265 348.094 338.93C344.477 344.234 343.075 349.61 344 356C346.089 363.031 350.335 368.457 355 374C360.299 372.131 364.822 369.149 369.561 366.189C370.202 365.796 370.843 365.402 371.504 364.996C372.367 364.457 372.367 364.457 373.248 363.908C377.633 361.635 380.477 362.121 385.234 363.328C386.449 363.634 387.663 363.939 388.914 364.254C390.18 364.583 391.446 364.911 392.75 365.25C394 365.563 395.251 365.876 396.539 366.199C402.855 367.808 408.962 369.542 415 372C415 374.97 415 377.94 415 381C411.916 382.542 409.932 381.209 406.707 380.164C406.083 379.965 405.459 379.766 404.815 379.562C402.812 378.923 400.812 378.275 398.812 377.625C396.831 376.983 394.848 376.343 392.863 375.71C391.049 375.131 389.237 374.543 387.425 373.956C380.464 371.859 380.464 371.859 373.762 373.652C372.747 374.406 371.733 375.161 370.688 375.938C365.134 380 365.134 380 363 380C363 380.66 363 381.32 363 382C363.733 382.267 364.467 382.534 365.223 382.809C367.959 383.982 370.042 385.307 372.438 387.062C375.96 389.593 379.524 391.994 383.194 394.301C401.577 405.866 401.577 405.866 407 414C407.562 416.688 407.562 416.688 407 419C405.312 420.875 405.312 420.875 403 422C399.644 421.907 397.237 420.626 394.344 419.074C390.223 416.998 386.236 415.873 381.75 414.875C371.487 412.453 361.341 409.65 351.188 406.812C350.391 406.59 349.595 406.368 348.774 406.139C341.51 404.113 334.25 402.077 327 400C326.508 396.84 326.508 396.84 327 393C329.294 390.632 332.007 389.153 334.875 387.562C335.621 387.117 336.368 386.672 337.137 386.213C342.615 383 342.615 383 345 383C342.979 379.332 340.947 375.854 338.438 372.5C332.375 364.18 331.149 355.1 332 345C333.947 335.994 340.22 327.988 346 321C346.66 321 347.32 321 348 321C348.227 320.443 348.454 319.886 348.688 319.312C350.376 316.338 352.467 314.28 355 312C355.66 312 356.32 312 357 312C357.33 311.01 357.66 310.02 358 309C359.908 307.381 361.792 305.9 363.812 304.438C365.4 303.26 365.4 303.26 367.02 302.059C369.324 300.467 371.456 299.139 374 298ZM346.375 391C345.149 391.835 345.149 391.835 343.898 392.688C343.272 393.121 342.645 393.554 342 394C345.045 395.696 347.777 396.473 351.203 397.07C352.183 397.244 353.163 397.418 354.172 397.598C355.188 397.772 356.203 397.946 357.25 398.125C358.797 398.398 358.797 398.398 360.375 398.676C362.916 399.123 365.457 399.564 368 400C366.625 398.458 366.625 398.458 365 397C364.34 397 363.68 397 363 397C363 396.34 363 395.68 363 395C360.825 393.179 360.825 393.179 358.125 391.375C356.768 390.428 356.768 390.428 355.383 389.461C351.349 386.988 350.034 388.491 346.375 391Z" fill="white"/>
<path d="M138 330C138.63 332.86 139.118 335.114 139 338C135.981 342.117 132.538 343.86 128 346C125.438 347.539 122.9 349.11 120.367 350.695C118.198 351.891 116.418 352.543 114 353C114 353.66 114 354.32 114 355C112.539 356.289 112.539 356.289 110.625 357.625C109.998 358.071 109.372 358.517 108.727 358.977C107 360 107 360 105 360C105 360.66 105 361.32 105 362C101.538 365 101.538 365 99 365C98.67 365.99 98.34 366.98 98 368C97.34 368 96.68 368 96 368C95.6906 368.619 95.3812 369.238 95.0625 369.875C94.375 371.25 93.6875 372.625 93 374C92.34 374 91.68 374 91 374C90.7525 374.66 90.505 375.32 90.25 376C89.2787 378.331 88.2395 380.464 87.0625 382.688C80.5612 395.617 80.7956 409.3 80.8125 423.438C80.8124 424.215 80.8123 424.992 80.8123 425.793C80.8314 443.239 81.7029 460.606 83 478C83.0747 479.004 83.1495 480.008 83.2265 481.042C84.1286 492.456 86.0943 503.543 88.5107 514.729C88.9594 516.812 89.3932 518.897 89.8203 520.984C91.2908 528.074 92.9958 535.044 95 542C95.3633 543.3 95.7266 544.599 96.0898 545.899C100.077 559.993 105.055 573.416 111.387 586.625C113.342 590.716 115.179 594.848 117 599C113.122 599.757 109.857 599.958 106 599C102.566 595.634 100.894 591.349 99 587C98.2623 585.398 97.524 583.797 96.7851 582.195C85.2928 556.775 78.612 529.618 75 502C74.8753 501.1 74.7505 500.201 74.622 499.274C72.4768 483.553 71.5179 467.839 70.8125 452C70.7697 451.041 70.7269 450.082 70.6828 449.093C68.5041 399.202 68.5041 399.202 76 383C76.3364 382.185 76.6729 381.371 77.0195 380.531C79.4266 375.156 82.6418 370.545 86.1875 365.875C86.6278 365.294 87.0682 364.713 87.5219 364.114C88.6297 362.7 89.8095 361.344 91 360C91.66 360 92.32 360 93 360C93.33 359.01 93.66 358.02 94 357C94.66 357 95.32 357 96 357C96.33 356.01 96.66 355.02 97 354C97.66 354 98.32 354 99 354C99.33 353.01 99.66 352.02 100 351C101.42 349.701 101.42 349.701 103.254 348.399C103.936 347.912 104.618 347.426 105.321 346.925C106.431 346.158 106.431 346.158 107.562 345.375C108.319 344.848 109.075 344.321 109.854 343.778C115.033 340.225 120.304 336.878 125.75 333.75C126.404 333.368 127.059 332.985 127.733 332.591C131.288 330.613 133.911 329.532 138 330Z" fill="white"/>
<path d="M308.062 438C325.446 445.677 344.853 449.923 363.284 454.328C367.762 455.403 372.182 456.616 376.605 457.898C383.431 459.866 390.296 461.625 397.193 463.321C400.659 464.175 404.122 465.039 407.586 465.902C408.285 466.076 408.985 466.251 409.706 466.43C416.913 468.225 424.116 470.036 431.312 471.875C432.45 472.161 433.588 472.447 434.76 472.741C435.805 473.01 436.849 473.278 437.926 473.554C438.837 473.786 439.749 474.018 440.689 474.257C443 475 443 475 446 477C441.001 478.666 435.89 477.698 430.687 477.312C429.443 477.221 428.2 477.129 426.918 477.034C384.62 473.697 342.141 466.772 304.191 447.015C299.007 444.613 293.816 444.296 288.25 445.687C284.742 447.733 283.524 450.09 282.456 453.979C280.861 461.385 280.543 468.695 280.375 476.25C280.356 476.965 280.337 477.68 280.317 478.416C279.99 490.91 279.972 503.405 279.976 515.902C279.977 516.689 279.977 517.477 279.977 518.288C279.981 526.348 279.995 534.407 280.027 542.467C280.039 545.534 280.047 548.601 280.055 551.668C280.062 553.824 280.075 555.979 280.088 558.134C280.091 559.42 280.094 560.706 280.097 562.032C280.103 563.165 280.108 564.297 280.113 565.464C280 568 280 568 279 569C272.647 568.647 272.647 568.647 270.125 566.125C268.231 562.548 267.871 559.751 267.855 555.767C267.848 554.691 267.842 553.616 267.836 552.507C267.834 550.752 267.834 550.752 267.832 548.961C267.828 547.744 267.823 546.527 267.819 545.273C267.809 541.307 267.809 537.341 267.812 533.375C267.812 532.704 267.813 532.033 267.813 531.342C267.83 453.549 267.83 453.549 278.531 441.238C287.672 432.658 297.085 432.84 308.062 438Z" fill="white"/>
<path d="M321.25 562.813C322.53 562.821 323.809 562.83 325.128 562.839C328.654 562.867 332.18 562.914 335.707 562.967C338.094 563.001 340.481 563.03 342.868 563.059C347.033 563.111 351.198 563.182 355.363 563.266C356.982 563.297 358.6 563.323 360.219 563.346C368.597 563.469 376.163 563.667 384 567C385.495 575.09 385.495 575.09 383.438 578.875C378.503 583.177 372.743 584.806 366.562 586.5C361.165 587.987 356.105 589.687 351 592C351 593.32 351 594.64 351 596C352.65 596.66 354.3 597.32 356 598C356 598.33 356 598.66 356 599C350.72 599 345.44 599 340 599C335.945 591.627 335.945 591.627 336.188 588.867C337.626 585.562 340.852 584.372 344 583C348.598 581.597 353.131 580.81 357.875 580.063C362.681 579.296 367.214 578.173 371.844 576.684C373.882 576.038 375.921 575.496 378 575C377.67 574.34 377.34 573.68 377 573C369.745 572.83 362.49 572.67 355.235 572.518C352.774 572.465 350.312 572.41 347.851 572.352C323.146 571.431 323.146 571.431 298.75 574.75C297.619 575.015 297.619 575.015 296.465 575.284C288.646 577.199 281.524 580.122 274.414 583.887C260.865 591.021 246.471 596.545 231 597C231 594.03 231 591.06 231 588C234.579 586.756 238.179 585.65 241.828 584.633C242.711 584.387 243.594 584.141 244.504 583.887C246.318 583.384 248.133 582.884 249.949 582.387C258.762 579.918 266.954 576.595 275.125 572.5C282.856 568.764 290.618 566.794 299 565C299.664 564.821 300.328 564.643 301.012 564.458C307.76 562.715 314.31 562.737 321.25 562.813Z" fill="white"/>
<path d="M413 295C418.339 299.345 422.863 306.089 424 313C424.095 315.719 424.14 318.407 424.125 321.125C424.131 322.217 424.131 322.217 424.137 323.332C424.127 328.746 424.127 328.746 423 331C423.66 331 424.32 331 425 331C425 339.25 425 347.5 425 356C424.01 356.495 424.01 356.495 423 357C423.495 367.395 423.495 367.395 424 378C425.65 378 427.3 378 429 378C429.289 377.422 429.578 376.845 429.875 376.25C430.917 374.166 431.959 372.083 433 370C433.66 370 434.32 370 435 370C435.33 371.65 435.66 373.3 436 375C436.99 374.67 437.98 374.34 439 374C437.712 378.616 435.964 381.296 433 385C431.452 387.704 429.99 390.448 428.52 393.195C427.148 395.728 425.738 398.221 424.25 400.687C423.864 401.331 423.477 401.974 423.079 402.637C422.723 403.086 422.367 403.536 422 404C421.34 404 420.68 404 420 404C420 404.66 420 405.32 420 406C416.625 406.625 416.625 406.625 413 407C410.299 404.299 410.701 402.834 410.688 399.062C410.671 398.001 410.654 396.941 410.637 395.847C410.947 392.561 411.522 389.969 412.446 386.832C414.184 380.786 414.771 374.885 415.188 368.625C415.266 367.518 415.344 366.412 415.425 365.272C415.634 362.182 415.823 359.092 416 356C416.075 354.755 416.15 353.509 416.227 352.226C416.703 335.731 414.42 317.412 403.653 304.367C400.924 302.109 398.385 302.544 394.965 302.625C390.428 303.199 386.269 304.671 381.981 306.222C378.839 307.042 377.08 306.905 374 306C373.702 302.715 373.554 300.69 375.375 297.875C385.795 290.432 402.061 287.23 413 295Z" fill="white"/>
<path d="M424 316C428.263 324.527 427.159 334.781 427.125 344.125C427.123 345.401 427.121 346.677 427.119 347.991C427.078 357.029 426.794 365.996 426 375C430.185 370.947 433.702 366.633 437.23 362.012C437.814 361.348 438.398 360.684 439 360C439.66 360 440.32 360 441 360C441.217 359.459 441.433 358.917 441.656 358.359C443.465 355.184 445.917 352.793 448.5 350.25C448.999 349.743 449.498 349.237 450.012 348.715C453.747 345 453.747 345 456 345C456.495 343.515 456.495 343.515 457 342C458.777 340.395 458.777 340.395 460.938 338.812C461.648 338.283 462.358 337.753 463.09 337.207C465 336 465 336 467 336C465.25 339.875 465.25 339.875 463 341C463.495 342.98 463.495 342.98 464 345C463.381 345.124 462.762 345.248 462.125 345.375C459.809 345.872 459.809 345.872 458 348C459.65 348.66 461.3 349.32 463 350C463 351.32 463 352.64 463 354C462.361 354.268 461.721 354.536 461.062 354.812C458.669 355.887 458.669 355.887 458 359C456.293 360.648 456.293 360.648 454.188 362.375C451.04 365.027 448.551 367.762 446 371C445.34 371 444.68 371 444 371C443.732 371.577 443.464 372.155 443.188 372.75C441.982 375.034 440.569 376.954 439 379C439.877 379.208 440.753 379.415 441.656 379.629C452.977 382.379 464.132 385.605 475.301 388.913C478.758 389.929 482.219 390.931 485.682 391.928C488.806 392.829 491.929 393.734 495.052 394.64C496.597 395.087 498.143 395.532 499.689 395.975C501.865 396.598 504.038 397.23 506.211 397.863C507.472 398.227 508.733 398.591 510.033 398.966C513 400 513 400 515 402C494.814 408.729 461.703 396 442 390C440.909 389.678 439.819 389.355 438.695 389.023C436.46 388.361 434.228 387.689 432 387C433.849 383.236 435.905 379.631 438 376C437.34 375.67 436.68 375.34 436 375C436 374.34 436 373.68 436 373C435.34 372.67 434.68 372.34 434 372C434.33 371.34 434.66 370.68 435 370C432.17 371.415 431.644 373.626 430.391 376.406C429 378 429 378 423 379C422.67 371.41 422.34 363.82 422 356C422.99 356 423.98 356 425 356C425 347.75 425 339.5 425 331C424.34 331 423.68 331 423 331C423.33 326.05 423.66 321.1 424 316Z" fill="white"/>
<path d="M540 411C539.34 411 538.68 411 538 411C537.67 411.99 537.34 412.98 537 414C532.916 416.503 528.912 416.064 524.305 415.777C521.907 415.791 521.907 415.791 520.195 417.504C519.801 417.998 519.406 418.491 519 419C523.447 421.382 526.952 422.14 532 422C531.01 421.34 530.02 420.68 529 420C532.122 419.033 534.521 419.01 537.75 419.438C538.549 419.539 539.348 419.641 540.172 419.746C540.775 419.83 541.378 419.914 542 420C527.558 434.442 479.056 428.055 460.115 428.066C449.41 428.064 438.705 428.04 428 428C428.797 422.219 428.797 422.219 430.625 420.25C444.551 412.92 464.137 415.939 479.291 416.096C496.118 416.259 513.156 416.386 529.5 411.813C536.628 409.876 536.628 409.876 540 411Z" fill="white"/>
<path d="M348.062 382.75C350 384 350 384 352 387C349.151 390.008 346.765 392.279 343 394C348.442 395.479 353.866 396.856 359.441 397.727C360.196 397.846 360.951 397.966 361.729 398.089C363.221 398.318 364.715 398.533 366.211 398.734C370.917 399.461 372.877 400.502 376 404C378.848 406.18 381.803 408.207 384.75 410.25C385.543 410.804 386.336 411.359 387.152 411.93C389.099 413.29 391.048 414.647 393 416C392.505 416.99 392.505 416.99 392 418C391.259 417.758 390.518 417.515 389.754 417.266C383.678 415.332 377.661 413.647 371.438 412.25C359.799 409.632 348.379 406.179 336.929 402.851C333.622 401.89 330.312 400.942 327 400C326.512 396.836 326.512 396.836 327 393C329.273 390.652 331.967 389.196 334.812 387.625C335.55 387.188 336.288 386.751 337.049 386.301C345.017 381.643 345.017 381.643 348.062 382.75Z" fill="white"/>
<path d="M366 305C368.475 305.495 368.475 305.495 371 306C370.67 306.66 370.34 307.32 370 308C369.34 308 368.68 308 368 308C368.495 308.454 368.99 308.907 369.5 309.375C371 311 371 311 371 313C370.34 313 369.68 313 369 313C368.897 313.598 368.794 314.196 368.688 314.812C367.902 317.313 367.031 318.375 365 320C364.34 320 363.68 320 363 320C362.67 320.99 362.34 321.98 362 323C361.34 323 360.68 323 360 323C359.67 323.99 359.34 324.98 359 326C358.34 326 357.68 326 357 326C356.763 326.532 356.526 327.065 356.282 327.613C354.632 330.685 352.596 333.413 350.5 336.188C350.097 336.733 349.693 337.279 349.278 337.842C346.248 341.876 346.248 341.876 344 343C342.772 346.687 342.855 350.101 342.875 353.938C342.872 354.654 342.868 355.37 342.864 356.107C342.804 361.155 342.804 361.155 344 366C344.66 366.33 345.32 366.66 346 367C345.67 367.66 345.34 368.32 345 369C345.805 369.289 346.609 369.577 347.438 369.875C350 371 350 371 351 373C350.063 375.125 350.063 375.125 349 377C347.02 376.67 345.04 376.34 343 376C343 373.36 343 370.72 343 368C340.525 368.495 340.525 368.495 338 369C337.156 365.622 336.892 363.325 338 360C337.34 360 336.68 360 336 360C336 358.68 336 357.36 336 356C335.34 356 334.68 356 334 356C332.663 348.377 333.973 343.137 337 336C337.66 336 338.32 336 339 336C339.33 335.01 339.66 334.02 340 333C340.66 333.33 341.32 333.66 342 334C342 334.99 342 335.98 342 337C342.544 333.942 343 331.112 343 328C343.99 327.67 344.98 327.34 346 327C348.224 324.44 350.119 321.822 352 319C352.99 319 353.98 319 355 319C355 318.34 355 317.68 355 317C355.66 317 356.32 317 357 317C357.083 316.237 357.165 315.474 357.25 314.688C358 312 358 312 359.875 310.188C362 309 362 309 365 309C365.33 307.68 365.66 306.36 366 305Z" fill="white"/>
<path d="M438 378C455.48 382.841 472.901 387.801 490.215 393.211C493.905 394.362 497.601 395.475 501.316 396.539C502.116 396.768 502.916 396.997 503.74 397.233C505.194 397.646 506.649 398.053 508.105 398.454C511.053 399.291 512.795 399.795 515 402C494.814 408.729 461.703 396 442 390C440.909 389.678 439.819 389.355 438.695 389.023C436.46 388.361 434.228 387.689 432 387C433.529 383.559 435.628 380.908 438 378Z" fill="white"/>
<path d="M382.324 362.82C383.181 363.024 384.038 363.227 384.921 363.437C385.834 363.664 386.747 363.891 387.688 364.125C388.619 364.351 389.551 364.578 390.51 364.811C398.788 366.863 406.91 369.311 415 372C415 374.97 415 377.94 415 381C411.916 382.542 409.932 381.209 406.707 380.164C406.083 379.965 405.459 379.766 404.815 379.562C402.812 378.923 400.812 378.275 398.812 377.625C396.831 376.983 394.848 376.343 392.863 375.71C391.049 375.131 389.237 374.543 387.425 373.956C380.516 371.859 380.516 371.859 373.867 373.617C372.88 374.362 371.892 375.107 370.875 375.875C367.206 378.61 364.598 380.478 360 381C358.68 379.35 357.36 377.7 356 376C359.391 372.21 363.222 369.853 367.562 367.312C368.235 366.91 368.907 366.507 369.6 366.092C377.194 361.589 377.194 361.589 382.324 362.82Z" fill="white"/>
<path d="M372 389C376.746 390.366 380.655 392.424 384.75 395.125C385.358 395.522 385.967 395.92 386.594 396.329C405.991 409.178 405.991 409.178 407.562 416.688C407 419 407 419 405.312 420.875C402.317 422.332 401.127 422.068 398 421C395.086 419.543 393.104 418.11 390.859 415.738C386.819 411.869 382.23 409.025 377.531 406.018C376.835 405.557 376.139 405.096 375.422 404.621C374.789 404.213 374.155 403.805 373.503 403.385C371.655 401.682 371.521 400.407 371 398C370.34 397.67 369.68 397.34 369 397C369.547 393.625 370.055 391.918 372 389Z" fill="#E2B12F"/>
<path d="M444.578 417.867C445.423 417.866 446.268 417.866 447.138 417.865C448.927 417.864 450.716 417.866 452.504 417.87C455.226 417.875 457.947 417.87 460.668 417.864C462.409 417.864 464.15 417.865 465.891 417.867C466.698 417.865 467.506 417.863 468.338 417.861C472.987 417.88 477.395 418.276 482 419C484.478 419.065 486.958 419.086 489.438 419.063C490.674 419.054 491.91 419.045 493.184 419.035C494.113 419.024 495.042 419.012 496 419C494.375 421.938 494.375 421.938 492 425C488.051 425.971 484.232 426.123 480.178 426.114C479.058 426.114 477.937 426.114 476.782 426.114C475.588 426.108 474.394 426.103 473.164 426.098C471.93 426.096 470.695 426.095 469.423 426.094C465.49 426.088 461.558 426.075 457.625 426.063C454.954 426.057 452.284 426.053 449.613 426.049C443.076 426.038 436.538 426.021 430 426C431.32 424.35 432.64 422.7 434 421C433.67 420.34 433.34 419.68 433 419C436.873 417.709 440.542 417.857 444.578 417.867Z" fill="#ECB72C"/>
<path d="M424 316C428.263 324.527 427.159 334.781 427.125 344.125C427.123 345.401 427.121 346.677 427.119 347.991C427.078 357.029 426.794 365.996 426 375C426.788 374.212 427.575 373.425 428.387 372.613C430.258 370.742 432.129 368.871 434 367C434 367.66 434 368.32 434 369C436.475 368.505 436.475 368.505 439 368C439 368.66 439 369.32 439 370C441.526 367.637 442.888 366.335 444 363C444.66 363.33 445.32 363.66 446 364C446 363.34 446 362.68 446 362C448.31 362 450.62 362 453 362C452.072 363.319 451.132 364.63 450.188 365.938C449.665 366.668 449.143 367.399 448.605 368.152C447 370 447 370 444 371C443.691 371.619 443.381 372.238 443.062 372.875C441.797 375.406 440.327 376.448 438 378C438 377.01 438 376.02 438 375C437.34 375 436.68 375 436 375C436 374.34 436 373.68 436 373C435.34 372.67 434.68 372.34 434 372C434.33 371.34 434.66 370.68 435 370C432.17 371.415 431.644 373.626 430.391 376.406C429 378 429 378 423 379C422.67 371.41 422.34 363.82 422 356C422.99 356 423.98 356 425 356C425 347.75 425 339.5 425 331C424.34 331 423.68 331 423 331C423.33 326.05 423.66 321.1 424 316Z" fill="#CEA42F"/>
<path d="M552 350C553.5 351.375 553.5 351.375 555 353C555 353.66 555 354.32 555 355C555.66 355 556.32 355 557 355C557 355.99 557 356.98 557 358C557.99 358.33 558.98 358.66 560 359C560 360.65 560 362.3 560 364C560.959 364.217 560.959 364.217 561.938 364.438C564 365 564 365 565 366C565.041 368.333 565.042 370.667 565 373C565.66 373 566.32 373 567 373C566.188 375.938 566.188 375.938 565 379C564.01 379.33 563.02 379.66 562 380C562 378.68 562 377.36 562 376C560.855 375.907 560.855 375.907 559.688 375.812C557 375 557 375 555.188 372.625C554 370 554 370 554 367C553.01 366.67 552.02 366.34 551 366C550.67 364.02 550.34 362.04 550 360C549.01 359.67 548.02 359.34 547 359C547.33 358.34 547.66 357.68 548 357C548.99 357 549.98 357 551 357C551.33 354.69 551.66 352.38 552 350Z" fill="#ECB82C"/>
<path d="M372 389C378.655 391.012 382.643 392.765 386 399C386.66 399.66 387.32 400.32 388 401C388.33 401.33 388.66 401.66 389 402C390.66 402.364 392.327 402.7 394 403C392.481 406.039 390.02 406.644 387 408C386.34 408 385.68 408 385 408C385 407.34 385 406.68 385 406C384.425 406.199 383.85 406.397 383.258 406.602C379.803 407.211 377.774 405.853 374.766 404.254C372.368 402.551 371.754 400.79 371 398C370.34 397.67 369.68 397.34 369 397C369.547 393.625 370.055 391.918 372 389Z" fill="#E7B42D"/>
<path d="M550 407C550.495 407.99 550.495 407.99 551 409C550.67 409.99 550.34 410.98 550 412C549.34 412 548.68 412 548 412C547.917 412.763 547.835 413.526 547.75 414.312C546.819 417.648 545.959 418.281 543 420C540.203 420.293 540.203 420.293 537.25 420.188C536.265 420.16 535.28 420.133 534.266 420.105C533.518 420.071 532.77 420.036 532 420C532 420.66 532 421.32 532 422C528.7 422.33 525.4 422.66 522 423C522 422.34 522 421.68 522 421C520.68 420.34 519.36 419.68 518 419C519.375 417 519.375 417 522 415C524.559 414.784 527.029 414.879 529.594 414.98C532.516 415.004 534.469 414.457 537 413C537.65 412.196 537.65 412.196 538.312 411.375C540.449 409.634 541.36 409.893 544.062 410C545.362 410 546.661 410 548 410C548.66 409.01 549.32 408.02 550 407Z" fill="#ECB72D"/>
<path d="M433.625 419.875C434.409 419.916 435.192 419.957 436 420C434.35 421.65 432.7 423.3 431 425C459.38 425 487.76 425 517 425C517 425.33 517 425.66 517 426C510.603 426.901 504.266 427.324 497.812 427.562C496.67 427.605 495.528 427.647 494.351 427.691C472.248 428.383 450.11 428.082 428 428C429.031 420.094 429.031 420.094 433.625 419.875Z" fill="#9B7D28"/>
<path d="M339 330C340.125 333.75 340.125 333.75 339 336C338.34 336 337.68 336 337 336C336.868 336.736 336.735 337.472 336.598 338.23C336.333 339.694 336.333 339.694 336.063 341.188C335.889 342.15 335.715 343.113 335.536 344.105C335.195 345.947 334.831 347.783 334.434 349.613C333.881 352.252 333.881 352.252 334 356C334.66 356 335.32 356 336 356C336 357.32 336 358.64 336 360C336.66 360 337.32 360 338 360C338 362.64 338 365.28 338 368C339.65 368 341.3 368 343 368C343.124 369.072 343.248 370.145 343.375 371.25C343.906 374.437 344.442 376.273 346 379C346.33 379.99 346.66 380.98 347 382C346.01 382.495 346.01 382.495 345 383C344.443 381.989 343.887 380.979 343.313 379.938C341.83 377.324 340.237 374.905 338.438 372.5C332.404 364.22 331.074 355.064 332 345C333.505 339.606 335.894 334.66 339 330Z" fill="#CFA632"/>
<path d="M480 329C484.29 329 488.58 329 493 329C493.33 329.99 493.66 330.98 494 332C492.68 332 491.36 332 490 332C490.66 332.33 491.32 332.66 492 333C492 333.66 492 334.32 492 335C489.69 334.67 487.38 334.34 485 334C484.938 334.784 484.876 335.567 484.812 336.375C484.544 337.241 484.276 338.108 484 339C481.625 340.25 481.625 340.25 479 341C475.882 341.646 475.882 341.646 475 344C474.34 344 473.68 344 473 344C473.404 338.753 474.058 336.464 478 333C478.66 331.68 479.32 330.36 480 329Z" fill="#EDB82C"/>
<path d="M384 295C386.375 295.188 386.375 295.188 389 296C390.312 298.562 390.312 298.562 391 301C387.835 305.316 384.328 305.863 379.34 306.801C377 307 377 307 374 306C373.875 303.125 373.875 303.125 374 300C376.378 297.622 377.721 297.41 381 297C381.66 297.33 382.32 297.66 383 298C383.33 297.01 383.66 296.02 384 295Z" fill="#EBB72D"/>
<path d="M454 350C456.169 350.506 458 351 460 352C460 352.66 460 353.32 460 354C458.02 354 456.04 354 454 354C454.248 354.743 454.495 355.485 454.75 356.25C455 359 455 359 453.375 361.375C451 363 451 363 448.25 362.75C447.507 362.502 446.765 362.255 446 362C446 362.66 446 363.32 446 364C445.34 364 444.68 364 444 364C443.917 364.619 443.835 365.238 443.75 365.875C443 368 443 368 440.938 369.25C440.298 369.498 439.659 369.745 439 370C439 369.34 439 368.68 439 368C437.35 368.33 435.7 368.66 434 369C434 368.34 434 367.68 434 367C436.035 365.484 438.066 364.072 440.188 362.688C444.622 359.785 448.239 356.775 452 353C452.66 353 453.32 353 454 353C454 352.01 454 351.02 454 350Z" fill="#ECB72B"/>
<path d="M414 322C417.261 325.261 417.055 328.891 417.063 333.312C417.042 334.529 417.022 335.746 417 337C417.66 337 418.32 337 419 337C419.059 341.292 419.094 345.583 419.125 349.875C419.142 351.079 419.159 352.283 419.176 353.523C419.253 367.59 419.253 367.59 417 374C416.01 374.495 416.01 374.495 415 375C415.073 373.779 415.145 372.559 415.219 371.301C415.993 357.807 416.503 344.819 414.438 331.41C414.029 328.226 413.922 325.205 414 322Z" fill="#D0A834"/>
<path d="M411 392C411.66 392 412.32 392 413 392C413.33 394.64 413.66 397.28 414 400C415.98 400 417.96 400 420 400C420 399.34 420 398.68 420 398C420.619 397.856 421.238 397.711 421.875 397.562C424.033 397.068 424.033 397.068 426 396C424.875 398.972 423.777 401.334 422 404C421.34 404 420.68 404 420 404C420 404.66 420 405.32 420 406C416.625 406.625 416.625 406.625 413 407C411 405 411 405 410.805 401.961C410.828 400.778 410.851 399.594 410.875 398.375C410.893 397.186 410.911 395.998 410.93 394.773C410.953 393.858 410.976 392.943 411 392Z" fill="#BF982E"/>
<path d="M425 353C425.66 353.33 426.32 353.66 427 354C426.67 361.26 426.34 368.52 426 376C426.99 376 427.98 376 429 376C429 376.66 429 377.32 429 378C427.02 378.33 425.04 378.66 423 379C422.67 371.41 422.34 363.82 422 356C422.99 356 423.98 356 425 356C425 355.01 425 354.02 425 353Z" fill="#DAAF33"/>
<path d="M344 342C345 345 345 345 344 348C343.1 358.436 348.134 365.729 354 374C353.091 373.544 353.091 373.544 352.164 373.078C350.575 372.287 348.978 371.513 347.375 370.75C343.215 367.685 342.842 362.864 342 358C341.886 355.981 341.825 353.959 341.812 351.938C341.798 350.915 341.784 349.893 341.77 348.84C341.998 346.02 342.547 344.394 344 342Z" fill="#C09B2F"/>
<path d="M395 411C396.32 411 397.64 411 399 411C399 411.99 399 412.98 399 414C399.66 414 400.32 414 401 414C401 413.01 401 412.02 401 411C401.66 411 402.32 411 403 411C403 412.32 403 413.64 403 415C403.66 415 404.32 415 405 415C405.33 414.01 405.66 413.02 406 412C406.33 414.31 406.66 416.62 407 419C405.312 420.562 405.312 420.562 403 422C400.312 421.812 400.312 421.812 398 421C397.67 420.34 397.34 419.68 397 419C398.32 419 399.64 419 401 419C400.196 418.237 399.391 417.474 398.562 416.688C396 414 396 414 395 411Z" fill="#C99E29"/>
<path d="M523 325C520.03 325.862 517.428 326.107 514.34 326.063C513.464 326.055 512.588 326.047 511.686 326.039C510.325 326.02 510.325 326.02 508.938 326C507.134 325.974 505.331 325.953 503.527 325.938C502.731 325.926 501.934 325.914 501.113 325.902C498.808 325.913 498.808 325.913 496 327C494.272 327.068 492.542 327.085 490.812 327.063C489.461 327.049 489.461 327.049 488.082 327.035C487.395 327.024 486.708 327.012 486 327C495.56 320.627 512.332 321.718 523 325Z" fill="#CEA632"/>
<path d="M336 366C336.66 366.66 337.32 367.32 338 368C340.584 368.167 340.584 368.167 343 368C343.124 369.072 343.248 370.145 343.375 371.25C343.906 374.437 344.441 376.273 346 379C346.33 379.99 346.66 380.98 347 382C346.34 382.33 345.68 382.66 345 383C344.443 381.989 343.886 380.979 343.312 379.938C341.781 377.231 340.113 374.739 338.25 372.25C336 369 336 369 336 366Z" fill="#CBA02D"/>
<path d="M540 411C539.34 411 538.68 411 538 411C537.67 411.99 537.34 412.98 537 414C532.518 416.67 527.728 416.228 522.688 416.125C521.852 416.116 521.016 416.107 520.154 416.098C518.103 416.074 516.051 416.038 514 416C514 415.67 514 415.34 514 415C515.074 414.807 516.148 414.613 517.254 414.414C518.69 414.151 520.126 413.888 521.562 413.625C522.267 413.499 522.971 413.372 523.697 413.242C527.152 412.605 530.486 411.886 533.84 410.836C537 410 537 410 540 411Z" fill="#B08D2A"/>
<path d="M550 345C553.856 348.636 556.867 352.417 559.812 356.812C560.219 357.41 560.626 358.007 561.045 358.623C562.035 360.079 563.018 361.539 564 363C563.67 363.66 563.34 364.32 563 365C562.01 364.67 561.02 364.34 560 364C560 362.35 560 360.7 560 359C558.68 358.67 557.36 358.34 556 358C556.33 357.01 556.66 356.02 557 355C556.34 355 555.68 355 555 355C553.981 353.345 552.982 351.677 552 350C551.34 349.67 550.68 349.34 550 349C550 347.68 550 346.36 550 345Z" fill="#D0A833"/>
<path d="M570 394C571.403 398.21 569.882 400.096 568 404C567.01 405.485 567.01 405.485 566 407C565.34 407 564.68 407 564 407C562 404 562 404 562 400C564.475 400.495 564.475 400.495 567 401C567.186 400.103 567.186 400.103 567.375 399.188C568 397 568 397 570 394Z" fill="#D0A42E"/>
<path d="M557 399C557 402 557 402 555.539 403.5C554.907 403.995 554.276 404.49 553.625 405C551.137 406.966 549.804 408.294 548 411C545.36 410.67 542.72 410.34 540 410C542.179 407.821 544.036 406.932 546.812 405.625C550.611 403.772 553.837 401.847 557 399Z" fill="#C39C2E"/>
<path d="M425 396C425.33 396.66 425.66 397.32 426 398C424.438 400.938 424.438 400.938 422 404C418.25 404.875 418.25 404.875 415 405C414.67 404.34 414.34 403.68 414 403C414.66 402.67 415.32 402.34 416 402C416 401.34 416 400.68 416 400C417.32 400 418.64 400 420 400C420 399.34 420 398.68 420 398C420.639 397.856 421.279 397.711 421.938 397.562C423.975 397.19 423.975 397.19 425 396Z" fill="#E8B52E"/>
<path d="M485 334C487.31 334.33 489.62 334.66 492 335C492 335.66 492 336.32 492 337C490.104 337.792 488.208 338.584 486.312 339.375C485.257 339.816 484.201 340.257 483.113 340.711C480.416 341.828 477.713 342.923 475 344C475.33 342.68 475.66 341.36 476 340C476.763 339.856 477.526 339.711 478.312 339.562C481.082 339.037 481.082 339.037 484 338C484.733 335.985 484.733 335.985 485 334Z" fill="#CFA431"/>
<path d="M478 329C478.66 329.33 479.32 329.66 480 330C478.498 334.206 475.714 335.739 472 338C471.67 337.34 471.34 336.68 471 336C469.68 336 468.36 336 467 336C469.153 333.651 471.217 332.176 474.062 330.75C474.755 330.394 475.447 330.038 476.16 329.672C476.767 329.45 477.374 329.228 478 329Z" fill="#D6AC32"/>
<path d="M548 412C550.312 411.812 550.312 411.812 553 412C554.668 413.512 554.668 413.512 556 415C554.213 415.864 552.42 416.716 550.625 417.562C549.627 418.038 548.63 418.514 547.602 419.004C546.743 419.333 545.885 419.661 545 420C544.34 419.67 543.68 419.34 543 419C543.959 418.66 543.959 418.66 544.938 418.312C547.272 417.147 547.272 417.147 547.75 414.375C547.833 413.591 547.915 412.808 548 412Z" fill="#C2992A"/>
<path d="M530 419C532.024 419.09 534.045 419.246 536.062 419.438C537.72 419.59 537.72 419.59 539.41 419.746C540.265 419.83 541.119 419.914 542 420C539.374 422.626 537.227 422.858 533.625 423.688C531.912 424.095 531.912 424.095 530.164 424.512C527.27 424.958 525.702 424.992 523 424C526.135 422.142 528.375 421.799 532 422C531.01 421.34 530.02 420.68 529 420C529.33 419.67 529.66 419.34 530 419Z" fill="#A38329"/>
<path d="M360 393C366.75 392.875 366.75 392.875 369 394C369 394.99 369 395.98 369 397C369.99 397.33 370.98 397.66 372 398C372 398.66 372 399.32 372 400C368.656 399.443 365.967 398.648 363 397C363 396.34 363 395.68 363 395C362.01 394.67 361.02 394.34 360 394C360 393.67 360 393.34 360 393Z" fill="#CEA32F"/>
<path d="M416 356C418.712 358.712 418.726 360.167 419 364C418.584 367.398 418.051 370.737 417 374C416.34 374.33 415.68 374.66 415 375C415.33 368.73 415.66 362.46 416 356Z" fill="#BE9930"/>
<path d="M394 406C395.32 406.99 396.64 407.98 398 409C398.66 408.67 399.32 408.34 400 408C402.625 409.188 402.625 409.188 405 411C405 412.32 405 413.64 405 415C404.34 415 403.68 415 403 415C403 413.68 403 412.36 403 411C402.34 411 401.68 411 401 411C401 411.99 401 412.98 401 414C400.34 414 399.68 414 399 414C399 413.01 399 412.02 399 411C398.01 411 397.02 411 396 411C396 410.34 396 409.68 396 409C395.34 409 394.68 409 394 409C394 408.01 394 407.02 394 406Z" fill="#E4B232"/>
<path d="M383 395C386.058 396.456 388.863 398.133 391.688 400C392.475 400.516 393.263 401.031 394.074 401.562C396 403 396 403 397 405C391.25 403.125 391.25 403.125 389 402C388.67 402.66 388.34 403.32 388 404C384.125 397.25 384.125 397.25 383 395Z" fill="#CBA12F"/>
<path d="M358 379C358.99 379.66 359.98 380.32 361 381C361 381.66 361 382.32 361 383C362.32 383.33 363.64 383.66 365 384C364.01 385.32 363.02 386.64 362 388C362 387.34 362 386.68 362 386C361.134 385.783 361.134 385.783 360.25 385.562C358.167 385.042 356.083 384.521 354 384C354.33 383.34 354.66 382.68 355 382C355.99 382 356.98 382 358 382C358 381.01 358 380.02 358 379Z" fill="#EAB832"/>
<path d="M384 410C386.97 411.98 389.94 413.96 393 416C392.67 416.66 392.34 417.32 392 418C388.7 417.01 385.4 416.02 382 415C382.66 413.35 383.32 411.7 384 410Z" fill="#29210D"/>
<path d="M88 330C88.99 330.33 89.98 330.66 91 331C89 333 89 333 85.6875 334.812C82.1611 336.767 79.7169 339.036 77 342C77 339 77 339 78.6445 337.246C79.36 336.649 80.0754 336.052 80.8125 335.438C81.5202 334.838 82.2279 334.239 82.957 333.621C85 332 85 332 88 330Z" fill="#0F0D09"/>
<path d="M355 326C355.66 326 356.32 326 357 326C355.326 329.957 352.869 332.845 350 336C349.34 336 348.68 336 348 336C348 335.34 348 334.68 348 334C348.66 334 349.32 334 350 334C349.67 333.01 349.34 332.02 349 331C349.66 330.01 350.32 329.02 351 328C352.32 328 353.64 328 355 328C355 327.34 355 326.68 355 326Z" fill="#D0A732"/>
<path d="M416 299C420.514 302.546 422.466 307.598 424 313C423.67 313.66 423.34 314.32 423 315C420.706 311.559 420 310.277 420 306C419.34 306 418.68 306 418 306C416.539 303.353 416 302.106 416 299Z" fill="#C19C32"/>
<path d="M496 326C495.01 327.485 495.01 327.485 494 329C490.742 329.293 490.742 329.293 486.875 329.187C484.953 329.147 484.953 329.147 482.992 329.105C482.005 329.071 481.017 329.036 480 329C483.839 325.16 490.807 325.87 496 326Z" fill="#DFB034"/>
<path d="M247 136C247.33 136.99 247.66 137.98 248 139C246.047 142.069 243.563 144.437 241 147C239.012 147.398 237.011 147.738 235 148C237.994 144.886 241.187 142.116 244.512 139.367C246.124 138.049 246.124 138.049 247 136Z" fill="#110F0A"/>
<path d="M518.48 421.926C519.374 422.053 520.267 422.181 521.188 422.312C522.089 422.432 522.99 422.552 523.918 422.676C524.605 422.783 525.292 422.89 526 423C522.686 425.209 521.655 425.225 517.812 425.125C516.911 425.107 516.01 425.089 515.082 425.07C514.395 425.047 513.708 425.024 513 425C514.791 422.686 515.489 422.015 518.48 421.926Z" fill="#D7AA32"/>
<path d="M106 348C106 348.66 106 349.32 106 350C104.35 351.354 102.683 352.687 101 354C100.67 354.66 100.34 355.32 100 356C99.01 356 98.02 356 97 356C96.67 356.99 96.34 357.98 96 359C95.01 358.67 94.02 358.34 93 358C93.99 357.67 94.98 357.34 96 357C96.33 356.01 96.66 355.02 97 354C97.66 354 98.32 354 99 354C99.33 353.01 99.66 352.02 100 351C103.444 348 103.444 348 106 348Z" fill="#121009"/>
<path d="M527 340C528.32 340 529.64 340 531 340C531 340.66 531 341.32 531 342C531.99 342 532.98 342 534 342C536.75 344.812 536.75 344.812 539 348C538.67 348.99 538.34 349.98 538 351C536.291 349.377 534.626 347.707 533 346C533 345.34 533 344.68 533 344C532.381 343.711 531.762 343.423 531.125 343.125C529 342 529 342 527 340Z" fill="#C29D32"/>
<path d="M368 303C368 303.66 368 304.32 368 305C367.01 305.495 367.01 305.495 366 306C365.67 306.99 365.34 307.98 365 309C363.188 310.25 363.188 310.25 361 311C358.863 310.547 358.863 310.547 357 310C358.454 308.828 359.913 307.662 361.375 306.5C362.593 305.525 362.593 305.525 363.836 304.531C366 303 366 303 368 303Z" fill="#C6A031"/>
<path d="M565 367C568.299 370.299 569.891 374.297 570.188 378.938C570.126 379.618 570.064 380.299 570 381C567.376 377.939 567 377.268 567 373C566.34 373 565.68 373 565 373C565 371.02 565 369.04 565 367Z" fill="#C8A132"/>
<path d="M386 293C386.33 293.66 386.66 294.32 387 295C386.01 295.33 385.02 295.66 384 296C383.267 298.015 383.267 298.015 383 300C382.402 299.649 381.804 299.299 381.188 298.938C378.892 297.667 378.892 297.667 376 299C376 298.34 376 297.68 376 297C379.3 295.68 382.6 294.36 386 293Z" fill="#C59D30"/>
<path d="M175 28C175 28.66 175 29.32 175 30C174.01 30.495 174.01 30.495 173 31C172.67 31.99 172.34 32.98 172 34C169.938 34.6875 169.938 34.6875 168 35C168 35.66 168 36.32 168 37C167.34 37 166.68 37 166 37C166.173 34.6647 166.702 33.3082 168.332 31.6211C172.572 28 172.572 28 175 28Z" fill="#110F09"/>
<path d="M439.359 474.145C440.148 474.365 440.937 474.585 441.75 474.812C442.549 475.025 443.348 475.238 444.172 475.457C445.077 475.726 445.077 475.726 446 476C445.67 476.66 445.34 477.32 445 478C441.04 477.67 437.08 477.34 433 477C437 474 437 474 439.359 474.145Z" fill="#17140B"/>
<path d="M345 378C347.875 378.688 347.875 378.688 351 380C352.312 382.5 352.312 382.5 353 385C353.33 385.66 353.66 386.32 354 387C349.719 385.415 347.705 382.531 345 379C345 378.67 345 378.34 345 378Z" fill="#E4B537"/>
<path d="M339 330C340.125 333.75 340.125 333.75 339 336C338.34 336 337.68 336 337 336C336.711 336.969 336.423 337.939 336.125 338.938C335 342 335 342 333 343C334.413 338.173 336.43 334.284 339 330Z" fill="#B3912E"/>
<path d="M438 418C440.97 418 443.94 418 447 418C444.314 420.686 441.624 421.06 438 422C438 420.68 438 419.36 438 418Z" fill="#DFB234"/>
<path d="M496 331C496.33 331.99 496.66 332.98 497 334C496.34 334 495.68 334 495 334C495 334.66 495 335.32 495 336C494.01 336 493.02 336 492 336C492 335.01 492 334.02 492 333C490.68 332.67 489.36 332.34 488 332C490.709 330.646 493.009 330.935 496 331Z" fill="#E5B533"/>
<path d="M514.188 415.875C515.089 415.893 515.99 415.911 516.918 415.93C517.605 415.953 518.292 415.976 519 416C519 416.33 519 416.66 519 417C517.02 417 515.04 417 513 417C513 417.66 513 418.32 513 419C510.69 418.67 508.38 418.34 506 418C509.314 415.791 510.345 415.775 514.188 415.875Z" fill="#D4AA35"/>
<path d="M557 399C557 402 557 402 555.469 403.605C554.819 404.128 554.169 404.65 553.5 405.188C552.85 405.717 552.201 406.247 551.531 406.793C551.026 407.191 550.521 407.59 550 408C549.01 407.34 548.02 406.68 547 406C547.638 405.578 548.276 405.157 548.934 404.723C549.76 404.175 550.586 403.627 551.438 403.062C552.261 402.517 553.085 401.972 553.934 401.41C555.9 400.162 555.9 400.162 557 399Z" fill="#B8942D"/>
<path d="M268 107C268.33 107.66 268.66 108.32 269 109C268.288 109.928 268.288 109.928 267.562 110.875C265.976 112.907 265.976 112.907 265 115C262.938 115.625 262.938 115.625 261 116C262.555 112.183 265.036 109.808 268 107Z" fill="#18140A"/>
<path d="M425 396C425.33 396.66 425.66 397.32 426 398C424.02 400.97 424.02 400.97 422 404C420 400.25 420 400.25 420 398C420.639 397.856 421.279 397.711 421.938 397.562C423.975 397.19 423.975 397.19 425 396Z" fill="#BA942E"/>
<path d="M431 386C431 389.694 429.718 391.778 428 395C427.67 395 427.34 395 427 395C426.67 393.02 426.34 391.04 426 389C427.65 388.01 429.3 387.02 431 386Z" fill="#BF9A2F"/>
<path d="M359 320C360.32 320 361.64 320 363 320C362.67 320.99 362.34 321.98 362 323C361.34 323 360.68 323 360 323C359.67 323.99 359.34 324.98 359 326C358.34 326 357.68 326 357 326C357.875 321.125 357.875 321.125 359 320Z" fill="#C9A12F"/>
<path d="M376 308C376.99 308.33 377.98 308.66 379 309C377.713 310.006 376.42 311.004 375.125 312C374.046 312.835 374.046 312.835 372.945 313.688C371 315 371 315 369 315C369 314.34 369 313.68 369 313C370.426 311.676 370.426 311.676 372.312 310.312C372.927 309.855 373.542 309.397 374.176 308.926C374.778 308.62 375.38 308.315 376 308Z" fill="#BC9830"/>
<path d="M433.562 419.938C434.769 419.968 434.769 419.968 436 420C431.25 424.875 431.25 424.875 429 426C430.073 420.023 430.073 420.023 433.562 419.938Z" fill="#CDA534"/>
<path d="M74 209C74.33 209 74.66 209 75 209C75.1025 214.126 75.0359 218.95 74 224C73.67 224 73.34 224 73 224C72.6194 221.674 72.2873 219.339 72 217C72.33 216.67 72.66 216.34 73 216C73.3676 213.672 73.7024 211.338 74 209Z" fill="#1D190E"/>
<path d="M562 401C563.98 401.66 565.96 402.32 568 403C567.34 404.32 566.68 405.64 566 407C565.34 407 564.68 407 564 407C562 404 562 404 562 401Z" fill="#C49B2D"/>
<path d="M383 395C386.112 396.498 389.053 398.199 392 400C390 401 390 401 387.5 400.312C384.703 398.844 384.066 397.907 383 395Z" fill="#B3902B"/>
<path d="M341 375C342.32 375 343.64 375 345 375C345.66 377.31 346.32 379.62 347 382C346.01 382.495 346.01 382.495 345 383C343.68 380.36 342.36 377.72 341 375Z" fill="#917526"/>
<path d="M559 357C561.799 359.528 563.458 361.204 564 365C562.68 364.67 561.36 364.34 560 364C559.67 361.69 559.34 359.38 559 357Z" fill="#C19B2F"/>
<path d="M343 356C344.991 358.986 345.941 361.597 347 365C345.35 364.01 343.7 363.02 342 362C342.33 360.02 342.66 358.04 343 356Z" fill="#AF8D2A"/>
<path d="M402 302C403.98 302.66 405.96 303.32 408 304C408.33 305.65 408.66 307.3 409 309C407.83 308.024 406.664 307.044 405.5 306.062C404.85 305.517 404.201 304.972 403.531 304.41C403.026 303.945 402.521 303.479 402 303C402 302.67 402 302.34 402 302Z" fill="#D9AD35"/>
</g>
<defs>
<clipPath id="clip0_21_2">
<rect width="600" height="599" fill="white"/>
</clipPath>
</defs>
</svg>
